<svg version="1.1" viewBox="0.0 0.0 960.0 480.0" fill="none" stroke="none" stroke-linecap="square" stroke-miterlimit="10" xmlns:xlink="http://www.w3.org/1999/xlink" xmlns="http://www.w3.org/2000/svg"><clipPath id="g2eda1780393_0_191.0"><path d="m0 0l960.0 0l0 480.0l-960.0 0l0 -480.0z" clip-rule="nonzero"/></clipPath><g clip-path="url(#g2eda1780393_0_191.0)"><path fill="#ffffff" d="m0 0l960.0 0l0 480.0l-960.0 0z" fill-rule="evenodd"/><path fill="#ff0454" d="m335.44882 79.70079l289.1024 0l0 320.59845l-289.1024 0z" fill-rule="evenodd"/><path stroke="#ff0454" stroke-width="1.0" stroke-linejoin="round" stroke-linecap="butt" d="m335.44882 79.70079l289.1024 0l0 320.59845l-289.1024 0z" fill-rule="evenodd"/><path fill="#ffffff" d="m359.77954 210.8143l0 0c0 -17.980774 14.576294 -32.557083 32.557068 -32.557083l175.32678 0c8.634705 0 16.91571 3.4301147 23.021362 9.535751c6.105591 6.1056366 9.535706 14.386658 9.535706 23.021332l0 130.22443c0 17.980774 -14.576294 32.557068 -32.557068 32.557068l-175.32678 0l0 0c-17.980774 0 -32.557068 -14.576294 -32.557068 -32.557068z" fill-rule="evenodd"/><path stroke="#ff0454" stroke-width="1.0" stroke-linejoin="round" stroke-linecap="butt" d="m359.77954 210.8143l0 0c0 -17.980774 14.576294 -32.557083 32.557068 -32.557083l175.32678 0c8.634705 0 16.91571 3.4301147 23.021362 9.535751c6.105591 6.1056366 9.535706 14.386658 9.535706 23.021332l0 130.22443c0 17.980774 -14.576294 32.557068 -32.557068 32.557068l-175.32678 0l0 0c-17.980774 0 -32.557068 -14.576294 -32.557068 -32.557068z" fill-rule="evenodd"/><path fill="#ffffff" d="m459.6378 131.61154l10.268585 -17.795258l20.187256 0l10.268585 17.795258l-10.268585 17.795273l-20.187256 0z" fill-rule="evenodd"/><path stroke="#ff0454" stroke-width="1.0" stroke-linejoin="round" stroke-linecap="butt" d="m459.6378 131.61154l10.268585 -17.795258l20.187256 0l10.268585 17.795258l-10.268585 17.795273l-20.187256 0z" fill-rule="evenodd"/><path fill="#ffffff" d="m379.64304 213.7454l10.268585 -17.795273l20.187256 0l10.268585 17.795273l-10.268585 17.795273l-20.187256 0z" fill-rule="evenodd"/><path stroke="#ff0454" stroke-width="1.0" stroke-linejoin="round" stroke-linecap="butt" d="m379.64304 213.7454l10.268585 -17.795273l20.187256 0l10.268585 17.795273l-10.268585 17.795273l-20.187256 0z" fill-rule="evenodd"/><path fill="#ff0454" d="m390.66666 208.99738l14.007874 0l0 14.1653595l-14.007874 0z" fill-rule="evenodd"/><path fill="#cb0343" d="m404.67453 208.99738l4.6693115 -4.6692963l0 14.1653595l-4.6693115 4.6692963z" fill-rule="evenodd"/><path fill="#ff3676" d="m390.66666 208.99738l4.6693115 -4.6692963l14.007874 0l-4.6693115 4.6692963z" fill-rule="evenodd"/><path fill="#000000" fill-opacity="0.0" d="m390.66666 208.99738l4.6693115 -4.6692963l14.007874 0l0 14.1653595l-4.6693115 4.6692963l-14.007874 0zm0 0l14.007874 0l4.6693115 -4.6692963m-4.6693115 4.6692963l0 14.1653595" fill-rule="evenodd"/><path stroke="#ffffff" stroke-width="1.0" stroke-linejoin="round" stroke-linecap="butt" d="m390.66666 208.99738l4.6693115 -4.6692963l14.007874 0l0 14.1653595l-4.6693115 4.6692963l-14.007874 0zm0 0l14.007874 0l4.6693115 -4.6692963m-4.6693115 4.6692963l0 14.1653595" fill-rule="evenodd"/><path fill="#ffffff" d="m379.64304 312.51706l10.268585 -17.795258l20.187256 0l10.268585 17.795258l-10.268585 17.795258l-20.187256 0z" fill-rule="evenodd"/><path stroke="#ff0454" stroke-width="1.0" stroke-linejoin="round" stroke-linecap="butt" d="m379.64304 312.51706l10.268585 -17.795258l20.187256 0l10.268585 17.795258l-10.268585 17.795258l-20.187256 0z" fill-rule="evenodd"/><path fill="#ff0454" d="m390.66666 307.76904l14.007874 0l0 14.165344l-14.007874 0z" fill-rule="evenodd"/><path fill="#cb0343" d="m404.67453 307.76904l4.6693115 -4.6693115l0 14.165375l-4.6693115 4.669281z" fill-rule="evenodd"/><path fill="#ff3676" d="m390.66666 307.76904l4.6693115 -4.6693115l14.007874 0l-4.6693115 4.6693115z" fill-rule="evenodd"/><path fill="#000000" fill-opacity="0.0" d="m390.66666 307.76904l4.6693115 -4.6693115l14.007874 0l0 14.165375l-4.6693115 4.669281l-14.007874 0zm0 0l14.007874 0l4.6693115 -4.6693115m-4.6693115 4.6693115l0 14.165344" fill-rule="evenodd"/><path stroke="#ffffff" stroke-width="1.0" stroke-linejoin="round" stroke-linecap="butt" d="m390.66666 307.76904l4.6693115 -4.6693115l14.007874 0l0 14.165375l-4.6693115 4.669281l-14.007874 0zm0 0l14.007874 0l4.6693115 -4.6693115m-4.6693115 4.6693115l0 14.165344" fill-rule="evenodd"/><path fill="#ffffff" d="m540.0 213.7454l10.268616 -17.795273l20.187195 0l10.268616 17.795273l-10.268616 17.795273l-20.187195 0z" fill-rule="evenodd"/><path stroke="#ff0454" stroke-width="1.0" stroke-linejoin="round" stroke-linecap="butt" d="m540.0 213.7454l10.268616 -17.795273l20.187195 0l10.268616 17.795273l-10.268616 17.795273l-20.187195 0z" fill-rule="evenodd"/><path fill="#ff0454" d="m551.0236 208.99738l14.007874 0l0 14.1653595l-14.007874 0z" fill-rule="evenodd"/><path fill="#cb0343" d="m565.0315 208.99738l4.6693115 -4.6692963l0 14.1653595l-4.6693115 4.6692963z" fill-rule="evenodd"/><path fill="#ff3676" d="m551.0236 208.99738l4.6693115 -4.6692963l14.007874 0l-4.6693115 4.6692963z" fill-rule="evenodd"/><path fill="#000000" fill-opacity="0.0" d="m551.0236 208.99738l4.6693115 -4.6692963l14.007874 0l0 14.1653595l-4.6693115 4.6692963l-14.007874 0zm0 0l14.007874 0l4.6693115 -4.6692963m-4.6693115 4.6692963l0 14.1653595" fill-rule="evenodd"/><path stroke="#ffffff" stroke-width="1.0" stroke-linejoin="round" stroke-linecap="butt" d="m551.0236 208.99738l4.6693115 -4.6692963l14.007874 0l0 14.1653595l-4.6693115 4.6692963l-14.007874 0zm0 0l14.007874 0l4.6693115 -4.6692963m-4.6693115 4.6692963l0 14.1653595" fill-rule="evenodd"/><path fill="#ffffff" d="m540.0 312.51706l10.268616 -17.795258l20.187195 0l10.268616 17.795258l-10.268616 17.795258l-20.187195 0z" fill-rule="evenodd"/><path stroke="#ff0454" stroke-width="1.0" stroke-linejoin="round" stroke-linecap="butt" d="m540.0 312.51706l10.268616 -17.795258l20.187195 0l10.268616 17.795258l-10.268616 17.795258l-20.187195 0z" fill-rule="evenodd"/><path fill="#ff0454" d="m551.0236 307.76904l14.007874 0l0 14.165344l-14.007874 0z" fill-rule="evenodd"/><path fill="#cb0343" d="m565.0315 307.76904l4.6693115 -4.6693115l0 14.165375l-4.6693115 4.669281z" fill-rule="evenodd"/><path fill="#ff3676" d="m551.0236 307.76904l4.6693115 -4.6693115l14.007874 0l-4.6693115 4.6693115z" fill-rule="evenodd"/><path fill="#000000" fill-opacity="0.0" d="m551.0236 307.76904l4.6693115 -4.6693115l14.007874 0l0 14.165375l-4.6693115 4.669281l-14.007874 0zm0 0l14.007874 0l4.6693115 -4.6693115m-4.6693115 4.6693115l0 14.165344" fill-rule="evenodd"/><path stroke="#ffffff" stroke-width="1.0" stroke-linejoin="round" stroke-linecap="butt" d="m551.0236 307.76904l4.6693115 -4.6693115l14.007874 0l0 14.165375l-4.6693115 4.669281l-14.007874 0zm0 0l14.007874 0l4.6693115 -4.6693115m-4.6693115 4.6693115l0 14.165344" fill-rule="evenodd"/><path fill="#000000" fill-opacity="0.0" d="m342.25986 112.09974l102.48816 0l0 39.023613l-102.48816 0z" fill-rule="evenodd"/><path fill="#ffffff" d="m352.19736 132.61974l0 -8.59375l3.8125 0q1.15625 0 1.75 0.234375q0.59375 0.234375 0.953125 0.828125q0.359375 0.578125 0.359375 1.28125q0 0.921875 -0.59375 1.546875q-0.59375 0.625 -1.828125 0.796875q0.453125 0.21875 0.6875 0.421875q0.5 0.453125 0.9375 1.140625l1.5 2.34375l-1.4375 0l-1.125 -1.78125q-0.5 -0.78125 -0.828125 -1.1875q-0.3125 -0.40625 -0.578125 -0.5625q-0.25 -0.171875 -0.515625 -0.25q-0.1875 -0.03125 -0.625 -0.03125l-1.328125 0l0 3.8125l-1.140625 0zm1.140625 -4.796875l2.453125 0q0.765625 0 1.203125 -0.15625q0.453125 -0.171875 0.671875 -0.515625q0.234375 -0.359375 0.234375 -0.78125q0 -0.609375 -0.453125 -1.0q-0.4375 -0.390625 -1.390625 -0.390625l-2.71875 0l0 2.84375zm11.634766 2.796875l1.09375 0.125q-0.25 0.953125 -0.953125 1.484375q-0.703125 0.53125 -1.78125 0.53125q-1.359375 0 -2.171875 -0.84375q-0.796875 -0.84375 -0.796875 -2.359375q0 -1.5625 0.8125 -2.421875q0.8125 -0.875 2.09375 -0.875q1.25 0 2.03125 0.84375q0.796875 0.84375 0.796875 2.390625q0 0.09375 0 0.28125l-4.640625 0q0.0625 1.03125 0.578125 1.578125q0.515625 0.53125 1.296875 0.53125q0.578125 0 0.984375 -0.296875q0.421875 -0.3125 0.65625 -0.96875zm-3.453125 -1.703125l3.46875 0q-0.0625 -0.796875 -0.390625 -1.1875q-0.515625 -0.609375 -1.3125 -0.609375q-0.734375 0 -1.234375 0.484375q-0.484375 0.484375 -0.53125 1.3125zm1.125 -3.296875l0.78125 -1.640625l1.390625 0l-1.296875 1.640625l-0.875 0zm4.751953 9.390625l0 -8.609375l0.953125 0l0 0.796875q0.34375 -0.46875 0.765625 -0.703125q0.4375 -0.234375 1.046875 -0.234375q0.796875 0 1.40625 0.40625q0.609375 0.40625 0.90625 1.15625q0.3125 0.75 0.3125 1.640625q0 0.953125 -0.34375 1.71875q-0.328125 0.765625 -0.984375 1.171875q-0.65625 0.40625 -1.375 0.40625q-0.53125 0 -0.953125 -0.21875q-0.421875 -0.234375 -0.6875 -0.5625l0 3.03125l-1.046875 0zm0.953125 -5.46875q0 1.203125 0.484375 1.78125q0.484375 0.5625 1.171875 0.5625q0.703125 0 1.203125 -0.59375q0.5 -0.59375 0.5 -1.84375q0 -1.1875 -0.484375 -1.765625q-0.484375 -0.59375 -1.171875 -0.59375q-0.671875 0 -1.1875 0.625q-0.515625 0.625 -0.515625 1.828125zm5.689453 3.078125l0 -8.59375l1.0625 0l0 8.59375l-1.0625 0zm2.6972656 -7.375l0 -1.21875l1.0625 0l0 1.21875l-1.0625 0zm0 7.375l0 -6.21875l1.0625 0l0 6.21875l-1.0625 0zm6.7285156 -2.28125l1.03125 0.140625q-0.171875 1.0625 -0.875 1.671875q-0.703125 0.609375 -1.71875 0.609375q-1.28125 0 -2.0625 -0.828125q-0.765625 -0.84375 -0.765625 -2.40625q0 -1.0 0.328125 -1.75q0.34375 -0.765625 1.015625 -1.140625q0.6875 -0.375 1.5 -0.375q1.0 0 1.640625 0.515625q0.65625 0.5 0.84375 1.453125l-1.03125 0.15625q-0.140625 -0.625 -0.515625 -0.9375q-0.375 -0.328125 -0.90625 -0.328125q-0.796875 0 -1.296875 0.578125q-0.5 0.5625 -0.5 1.796875q0 1.265625 0.484375 1.828125q0.484375 0.5625 1.25 0.5625q0.625 0 1.03125 -0.375q0.421875 -0.375 0.546875 -1.171875zm6.0 1.515625q-0.59375 0.5 -1.140625 0.703125q-0.53125 0.203125 -1.15625 0.203125q-1.03125 0 -1.578125 -0.5q-0.546875 -0.5 -0.546875 -1.28125q0 -0.453125 0.203125 -0.828125q0.203125 -0.390625 0.546875 -0.609375q0.34375 -0.234375 0.765625 -0.34375q0.296875 -0.09375 0.9375 -0.171875q1.265625 -0.140625 1.875 -0.359375q0 -0.21875 0 -0.265625q0 -0.65625 -0.296875 -0.921875q-0.40625 -0.34375 -1.203125 -0.34375q-0.734375 0 -1.09375 0.265625q-0.359375 0.25 -0.53125 0.90625l-1.03125 -0.140625q0.140625 -0.65625 0.46875 -1.0625q0.328125 -0.40625 0.9375 -0.625q0.609375 -0.21875 1.40625 -0.21875q0.796875 0 1.296875 0.1875q0.5 0.1875 0.734375 0.46875q0.234375 0.28125 0.328125 0.71875q0.046875 0.265625 0.046875 0.96875l0 1.40625q0 1.46875 0.0625 1.859375q0.078125 0.390625 0.28125 0.75l-1.109375 0q-0.15625 -0.328125 -0.203125 -0.765625zm-0.09375 -2.359375q-0.578125 0.234375 -1.71875 0.40625q-0.65625 0.09375 -0.921875 0.21875q-0.265625 0.109375 -0.421875 0.328125q-0.140625 0.21875 -0.140625 0.5q0 0.421875 0.3125 0.703125q0.328125 0.28125 0.9375 0.28125q0.609375 0 1.078125 -0.265625q0.484375 -0.265625 0.703125 -0.734375q0.171875 -0.359375 0.171875 -1.046875l0 -0.390625zm2.2832031 1.265625l1.03125 -0.15625q0.09375 0.625 0.484375 0.953125q0.40625 0.328125 1.140625 0.328125q0.71875 0 1.0625 -0.28125q0.359375 -0.296875 0.359375 -0.703125q0 -0.359375 -0.3125 -0.5625q-0.21875 -0.140625 -1.078125 -0.359375q-1.15625 -0.296875 -1.609375 -0.5q-0.4375 -0.21875 -0.671875 -0.59375q-0.234375 -0.375 -0.234375 -0.84375q0 -0.40625 0.1875 -0.765625q0.1875 -0.359375 0.515625 -0.59375q0.25 -0.171875 0.671875 -0.296875q0.421875 -0.125 0.921875 -0.125q0.71875 0 1.265625 0.21875q0.5625 0.203125 0.828125 0.5625q0.265625 0.359375 0.359375 0.953125l-1.03125 0.140625q-0.0625 -0.46875 -0.40625 -0.734375q-0.328125 -0.28125 -0.953125 -0.28125q-0.71875 0 -1.03125 0.25q-0.3125 0.234375 -0.3125 0.5625q0 0.203125 0.125 0.359375q0.140625 0.171875 0.40625 0.28125q0.15625 0.0625 0.9375 0.265625q1.125 0.3125 1.5625 0.5q0.4375 0.1875 0.6875 0.546875q0.25 0.359375 0.25 0.90625q0 0.53125 -0.3125 1.0q-0.296875 0.453125 -0.875 0.71875q-0.578125 0.25 -1.3125 0.25q-1.21875 0 -1.859375 -0.5q-0.625 -0.515625 -0.796875 -1.5zm10.037109 -3.15625l0 -1.203125l1.203125 0l0 1.203125l-1.203125 0zm0 5.015625l0 -1.203125l1.203125 0l0 1.203125l-1.203125 0zm9.464844 0l0 -2.0625l-3.71875 0l0 -0.96875l3.921875 -5.5625l0.859375 0l0 5.5625l1.15625 0l0 0.96875l-1.15625 0l0 2.0625l-1.0625 0zm0 -3.03125l0 -3.859375l-2.6875 3.859375l2.6875 0z" fill-rule="nonzero"/><path fill="#000000" fill-opacity="0.0" d="m420.36746 128.7664l34.141724 0" fill-rule="evenodd"/><path stroke="#ffffff" stroke-width="1.0" stroke-linejoin="round" stroke-linecap="butt" d="m420.36746 128.7664l28.141724 0" fill-rule="evenodd"/><path fill="#ffffff" stroke="#ffffff" stroke-width="1.0" stroke-linecap="butt" d="m448.5092 130.41814l4.538086 -1.6517334l-4.538086 -1.6517334z" fill-rule="evenodd"/><path fill="#000000" fill-opacity="0.0" d="m509.1181 112.09974l102.48822 0l0 39.023613l-102.48822 0z" fill-rule="evenodd"/><path fill="#ffffff" d="m519.0087 132.61974l0 -8.59375l1.71875 0l2.03125 6.078125q0.28125 0.859375 0.40625 1.28125q0.140625 -0.46875 0.453125 -1.375l2.0625 -5.984375l1.53125 0l0 8.59375l-1.09375 0l0 -7.1875l-2.5 7.1875l-1.03125 0l-2.484375 -7.3125l0 7.3125l-1.09375 0zm9.855469 2.390625l-0.125 -0.984375q0.34375 0.09375 0.609375 0.09375q0.34375 0 0.546875 -0.125q0.21875 -0.109375 0.359375 -0.3125q0.09375 -0.171875 0.328125 -0.796875q0.015625 -0.078125 0.09375 -0.25l-2.375 -6.234375l1.140625 0l1.296875 3.59375q0.25 0.6875 0.453125 1.453125q0.1875 -0.734375 0.4375 -1.421875l1.328125 -3.625l1.046875 0l-2.359375 6.328125q-0.390625 1.015625 -0.59375 1.40625q-0.28125 0.53125 -0.65625 0.765625q-0.359375 0.25 -0.859375 0.25q-0.296875 0 -0.671875 -0.140625zm5.625 -4.25l1.03125 -0.15625q0.09375 0.625 0.484375 0.953125q0.40625 0.328125 1.140625 0.328125q0.71875 0 1.0625 -0.28125q0.359375 -0.296875 0.359375 -0.703125q0 -0.359375 -0.3125 -0.5625q-0.21875 -0.140625 -1.078125 -0.359375q-1.15625 -0.296875 -1.609375 -0.5q-0.4375 -0.21875 -0.671875 -0.59375q-0.234375 -0.375 -0.234375 -0.84375q0 -0.40625 0.1875 -0.765625q0.1875 -0.359375 0.515625 -0.59375q0.25 -0.171875 0.671875 -0.296875q0.421875 -0.125 0.921875 -0.125q0.71875 0 1.265625 0.21875q0.5625 0.203125 0.828125 0.5625q0.265625 0.359375 0.359375 0.953125l-1.03125 0.140625q-0.0625 -0.46875 -0.40625 -0.734375q-0.328125 -0.28125 -0.953125 -0.28125q-0.71875 0 -1.03125 0.25q-0.3125 0.234375 -0.3125 0.5625q0 0.203125 0.125 0.359375q0.140625 0.171875 0.40625 0.28125q0.15625 0.0625 0.9375 0.265625q1.125 0.3125 1.5625 0.5q0.4375 0.1875 0.6875 0.546875q0.25 0.359375 0.25 0.90625q0 0.53125 -0.3125 1.0q-0.296875 0.453125 -0.875 0.71875q-0.578125 0.25 -1.3125 0.25q-1.21875 0 -1.859375 -0.5q-0.625 -0.515625 -0.796875 -1.5zm10.390625 4.25l0 -3.046875q-0.25 0.34375 -0.703125 0.578125q-0.4375 0.21875 -0.9375 0.21875q-1.109375 0 -1.90625 -0.875q-0.796875 -0.890625 -0.796875 -2.4375q0 -0.9375 0.328125 -1.671875q0.328125 -0.75 0.9375 -1.125q0.625 -0.390625 1.359375 -0.390625q1.15625 0 1.8125 0.96875l0 -0.828125l0.953125 0l0 8.609375l-1.046875 0zm-3.265625 -5.515625q0 1.203125 0.5 1.796875q0.515625 0.59375 1.21875 0.59375q0.671875 0 1.15625 -0.5625q0.484375 -0.578125 0.484375 -1.734375q0 -1.25 -0.515625 -1.875q-0.5 -0.625 -1.203125 -0.625q-0.671875 0 -1.15625 0.59375q-0.484375 0.578125 -0.484375 1.8125zm5.939453 3.125l0 -8.59375l1.0625 0l0 8.59375l-1.0625 0z" fill-rule="nonzero"/><path fill="#000000" fill-opacity="0.0" d="m479.3281 149.33595c0 32.204727 -29.480316 64.409454 -58.960632 64.409454" fill-rule="evenodd"/><path stroke="#747bcb" stroke-width="1.0" stroke-linejoin="round" stroke-linecap="butt" d="m479.3281 149.33595c0 16.102371 -7.3700867 32.204727 -18.425201 44.281494c-5.5275574 6.038391 -11.976379 11.070389 -18.885834 14.592773c-3.454712 1.7612 -7.024597 3.144989 -10.652069 4.088501c-1.8137207 0.47174072 -3.6418457 0.8334198 -5.4772034 1.0771332c-0.4588318 0.060943604 -0.9180908 0.11450195 -1.3776855 0.1605835c-0.22982788 0.023025513 -0.45968628 0.044189453 -0.68969727 0.0634613l-0.028869629 0.0021972656" fill-rule="evenodd"/><path fill="#747bcb" stroke="#747bcb" stroke-width="1.0" stroke-linecap="butt" d="m423.79153 213.60208l1.0765686 -1.1706238l-3.040039 1.2528076l3.1340942 0.99438477z" fill-rule="evenodd"/><path fill="#000000" fill-opacity="0.0" d="m479.3386 149.33595c0 32.204727 30.330688 64.409454 60.661407 64.409454" fill-rule="evenodd"/><path stroke="#747bcb" stroke-width="1.0" stroke-linejoin="round" stroke-linecap="butt" d="m479.3386 149.33595c0 16.102371 7.582672 32.204727 18.956696 44.281494c5.686981 6.038391 12.321838 11.070389 19.430603 14.592773c3.5543823 1.7612 7.227234 3.144989 10.95929 4.088501c1.8660889 0.47174072 3.7469482 0.8334198 5.635254 1.0771332c0.47198486 0.060943604 0.9445801 0.11450195 1.4174194 0.1605835c0.2364502 0.023025513 0.47296143 0.044189453 0.7095947 0.0634613l0.12817383 0.009414673" fill-rule="evenodd"/><path fill="#747bcb" stroke="#747bcb" stroke-width="1.0" stroke-linecap="butt" d="m536.5756 213.60931l-1.168335 1.0790405l3.131958 -1.0010071l-3.0426636 -1.2463837z" fill-rule="evenodd"/><path fill="#000000" fill-opacity="0.0" d="m479.3281 149.7769c0 81.37009 -29.480316 162.74016 -58.960632 162.74016" fill-rule="evenodd"/><path stroke="#747bcb" stroke-width="1.0" stroke-linejoin="round" stroke-linecap="butt" d="m479.3281 149.7769c0 40.685043 -7.3700867 81.37009 -18.425201 111.883865c-5.5275574 15.256897 -11.976379 27.970947 -18.885834 36.87082c-3.454712 4.4499207 -7.024597 7.946289 -10.652069 10.33017c-1.8137207 1.1919556 -3.6418457 2.105774 -5.4772034 2.7216187c-0.4588318 0.15396118 -0.9180908 0.28927612 -1.3776855 0.40570068c-0.22982788 0.05819702 -0.45968628 0.11166382 -0.68969727 0.16033936l-0.044677734 0.009002686" fill-rule="evenodd"/><path fill="#747bcb" stroke="#747bcb" stroke-width="1.0" stroke-linecap="butt" d="m423.77573 312.15842l1.0007324 -1.236084l-2.9551392 1.441742l3.1904907 0.79507446z" fill-rule="evenodd"/><path fill="#000000" fill-opacity="0.0" d="m479.3386 151.54068c0 80.48819 30.330688 160.97638 60.661407 160.97638" fill-rule="evenodd"/><path stroke="#747bcb" stroke-width="1.0" stroke-linejoin="round" stroke-linecap="butt" d="m479.3386 151.54068c0 40.244095 7.582672 80.48819 18.956696 110.671265c5.686981 15.091522 12.321838 27.667816 19.430603 36.471222c3.5543823 4.4016724 7.227234 7.8601685 10.95929 10.218201c1.8660889 1.1790466 3.7469482 2.0829773 5.635254 2.6921082c0.47198486 0.15231323 0.9445801 0.28619385 1.4174194 0.40130615c0.2364502 0.057556152 0.47296143 0.11047363 0.7095947 0.15863037l0.14196777 0.027496338" fill-rule="evenodd"/><path fill="#747bcb" stroke="#747bcb" stroke-width="1.0" stroke-linecap="butt" d="m536.5894 312.1809l-1.2294312 1.0088501l3.1851807 -0.8161011l-2.9645996 -1.4222412z" fill-rule="evenodd"/><path fill="#000000" fill-opacity="0.0" d="m362.7454 223.16273l74.519714 0l0 26.64566l-74.519714 0z" fill-rule="evenodd"/><path fill="#747bcb" d="m389.8944 237.92273l0 -3.109375l0.484375 0l0 0.4375q0.140625 -0.234375 0.375 -0.375q0.25 -0.140625 0.5625 -0.140625q0.34375 0 0.5625 0.15625q0.21875 0.140625 0.3125 0.390625q0.375 -0.546875 0.96875 -0.546875q0.453125 0 0.703125 0.265625q0.25 0.25 0.25 0.78125l0 2.140625l-0.515625 0l0 -1.953125q0 -0.328125 -0.0625 -0.46875q-0.046875 -0.140625 -0.1875 -0.21875q-0.125 -0.078125 -0.3125 -0.078125q-0.328125 0 -0.546875 0.21875q-0.21875 0.21875 -0.21875 0.6875l0 1.8125l-0.515625 0l0 -2.015625q0 -0.359375 -0.140625 -0.53125q-0.125 -0.171875 -0.421875 -0.171875q-0.21875 0 -0.40625 0.125q-0.1875 0.109375 -0.28125 0.328125q-0.078125 0.21875 -0.078125 0.65625l0 1.609375l-0.53125 0zm4.982422 1.203125l-0.0625 -0.5q0.171875 0.046875 0.296875 0.046875q0.1875 0 0.28125 -0.0625q0.109375 -0.046875 0.171875 -0.15625q0.0625 -0.078125 0.171875 -0.390625q0.015625 -0.046875 0.046875 -0.140625l-1.1875 -3.109375l0.578125 0l0.640625 1.796875q0.125 0.34375 0.21875 0.71875q0.09375 -0.359375 0.21875 -0.703125l0.671875 -1.8125l0.53125 0l-1.1875 3.15625q-0.1875 0.515625 -0.296875 0.71875q-0.140625 0.25 -0.328125 0.375q-0.171875 0.125 -0.421875 0.125q-0.15625 0 -0.34375 -0.0625zm2.8125 -2.125l0.515625 -0.09375q0.046875 0.3125 0.25 0.484375q0.203125 0.171875 0.5625 0.171875q0.359375 0 0.53125 -0.140625q0.1875 -0.15625 0.1875 -0.359375q0 -0.171875 -0.15625 -0.28125q-0.109375 -0.0625 -0.546875 -0.171875q-0.578125 -0.15625 -0.8125 -0.25q-0.21875 -0.109375 -0.34375 -0.296875q-0.109375 -0.203125 -0.109375 -0.421875q0 -0.21875 0.09375 -0.390625q0.109375 -0.171875 0.265625 -0.296875q0.125 -0.09375 0.328125 -0.15625q0.21875 -0.0625 0.46875 -0.0625q0.359375 0 0.640625 0.109375q0.28125 0.109375 0.40625 0.296875q0.140625 0.171875 0.1875 0.46875l-0.515625 0.078125q-0.046875 -0.25 -0.21875 -0.375q-0.15625 -0.140625 -0.46875 -0.140625q-0.359375 0 -0.515625 0.125q-0.15625 0.109375 -0.15625 0.28125q0 0.09375 0.0625 0.1875q0.0625 0.078125 0.203125 0.140625q0.078125 0.015625 0.46875 0.125q0.5625 0.15625 0.78125 0.25q0.21875 0.09375 0.34375 0.28125q0.125 0.171875 0.125 0.4375q0 0.265625 -0.15625 0.5q-0.140625 0.234375 -0.4375 0.375q-0.296875 0.125 -0.65625 0.125q-0.609375 0 -0.9375 -0.25q-0.3125 -0.265625 -0.390625 -0.75zm5.1875 2.109375l0 -1.515625q-0.125 0.171875 -0.34375 0.296875q-0.21875 0.109375 -0.46875 0.109375q-0.546875 0 -0.953125 -0.4375q-0.390625 -0.453125 -0.390625 -1.21875q0 -0.46875 0.15625 -0.84375q0.15625 -0.375 0.46875 -0.5625q0.3125 -0.203125 0.6875 -0.203125q0.5625 0 0.90625 0.484375l0 -0.40625l0.46875 0l0 4.296875l-0.53125 0zm-1.625 -2.75q0 0.59375 0.25 0.90625q0.25 0.296875 0.609375 0.296875q0.34375 0 0.578125 -0.28125q0.25 -0.296875 0.25 -0.875q0 -0.625 -0.265625 -0.9375q-0.25 -0.3125 -0.59375 -0.3125q-0.34375 0 -0.59375 0.296875q-0.234375 0.28125 -0.234375 0.90625zm2.977539 1.5625l0 -4.296875l0.515625 0l0 4.296875l-0.515625 0zm1.1298828 -1.296875l0 -0.515625l1.625 0l0 0.515625l-1.625 0zm2.0605469 -0.828125q0 -0.75 0.15625 -1.21875q0.15625 -0.46875 0.46875 -0.71875q0.3125 -0.25 0.78125 -0.25q0.34375 0 0.59375 0.140625q0.265625 0.140625 0.4375 0.40625q0.171875 0.25 0.265625 0.640625q0.09375 0.375 0.09375 1.0q0 0.765625 -0.15625 1.234375q-0.15625 0.453125 -0.46875 0.71875q-0.296875 0.25 -0.765625 0.25q-0.625 0 -0.984375 -0.453125q-0.421875 -0.53125 -0.421875 -1.75zm0.546875 0q0 1.0625 0.234375 1.421875q0.25 0.34375 0.625 0.34375q0.359375 0 0.609375 -0.34375q0.25 -0.359375 0.25 -1.421875q0 -1.046875 -0.25 -1.390625q-0.25 -0.359375 -0.625 -0.359375q-0.359375 0 -0.578125 0.3125q-0.265625 0.390625 -0.265625 1.4375z" fill-rule="nonzero"/><path fill="#000000" fill-opacity="0.0" d="m362.00787 321.84778l74.519684 0l0 26.64566l-74.519684 0z" fill-rule="evenodd"/><path fill="#747bcb" d="m389.1569 336.60776l0 -3.109375l0.484375 0l0 0.4375q0.140625 -0.234375 0.375 -0.375q0.25 -0.140625 0.5625 -0.140625q0.34375 0 0.5625 0.15625q0.21875 0.140625 0.3125 0.390625q0.375 -0.546875 0.96875 -0.546875q0.453125 0 0.703125 0.265625q0.25 0.25 0.25 0.78125l0 2.140625l-0.515625 0l0 -1.953125q0 -0.328125 -0.0625 -0.46875q-0.046875 -0.140625 -0.1875 -0.21875q-0.125 -0.078125 -0.3125 -0.078125q-0.328125 0 -0.546875 0.21875q-0.21875 0.21875 -0.21875 0.6875l0 1.8125l-0.515625 0l0 -2.015625q0 -0.359375 -0.140625 -0.53125q-0.125 -0.171875 -0.421875 -0.171875q-0.21875 0 -0.40625 0.125q-0.1875 0.109375 -0.28125 0.328125q-0.078125 0.21875 -0.078125 0.65625l0 1.609375l-0.53125 0zm4.982422 1.203125l-0.0625 -0.5q0.171875 0.046875 0.296875 0.046875q0.1875 0 0.28125 -0.0625q0.109375 -0.046875 0.171875 -0.15625q0.0625 -0.078125 0.171875 -0.390625q0.015625 -0.046875 0.046875 -0.140625l-1.1875 -3.109375l0.578125 0l0.640625 1.796875q0.125 0.34375 0.21875 0.71875q0.09375 -0.359375 0.21875 -0.703125l0.671875 -1.8125l0.53125 0l-1.1875 3.15625q-0.1875 0.515625 -0.296875 0.71875q-0.140625 0.25 -0.328125 0.375q-0.171875 0.125 -0.421875 0.125q-0.15625 0 -0.34375 -0.0625zm2.8125 -2.125l0.515625 -0.09375q0.046875 0.3125 0.25 0.484375q0.203125 0.171875 0.5625 0.171875q0.359375 0 0.53125 -0.140625q0.1875 -0.15625 0.1875 -0.359375q0 -0.171875 -0.15625 -0.28125q-0.109375 -0.0625 -0.546875 -0.171875q-0.578125 -0.15625 -0.8125 -0.25q-0.21875 -0.109375 -0.34375 -0.296875q-0.109375 -0.203125 -0.109375 -0.421875q0 -0.21875 0.09375 -0.390625q0.109375 -0.171875 0.265625 -0.296875q0.125 -0.09375 0.328125 -0.15625q0.21875 -0.0625 0.46875 -0.0625q0.359375 0 0.640625 0.109375q0.28125 0.109375 0.40625 0.296875q0.140625 0.171875 0.1875 0.46875l-0.515625 0.078125q-0.046875 -0.25 -0.21875 -0.375q-0.15625 -0.140625 -0.46875 -0.140625q-0.359375 0 -0.515625 0.125q-0.15625 0.109375 -0.15625 0.28125q0 0.09375 0.0625 0.1875q0.0625 0.078125 0.203125 0.140625q0.078125 0.015625 0.46875 0.125q0.5625 0.15625 0.78125 0.25q0.21875 0.09375 0.34375 0.28125q0.125 0.171875 0.125 0.4375q0 0.265625 -0.15625 0.5q-0.140625 0.234375 -0.4375 0.375q-0.296875 0.125 -0.65625 0.125q-0.609375 0 -0.9375 -0.25q-0.3125 -0.265625 -0.390625 -0.75zm5.1875 2.109375l0 -1.515625q-0.125 0.171875 -0.34375 0.296875q-0.21875 0.109375 -0.46875 0.109375q-0.546875 0 -0.953125 -0.4375q-0.390625 -0.453125 -0.390625 -1.21875q0 -0.46875 0.15625 -0.84375q0.15625 -0.375 0.46875 -0.5625q0.3125 -0.203125 0.6875 -0.203125q0.5625 0 0.90625 0.484375l0 -0.40625l0.46875 0l0 4.296875l-0.53125 0zm-1.625 -2.75q0 0.59375 0.25 0.90625q0.25 0.296875 0.609375 0.296875q0.34375 0 0.578125 -0.28125q0.25 -0.296875 0.25 -0.875q0 -0.625 -0.265625 -0.9375q-0.25 -0.3125 -0.59375 -0.3125q-0.34375 0 -0.59375 0.296875q-0.234375 0.28125 -0.234375 0.90625zm2.977539 1.5625l0 -4.296875l0.515625 0l0 4.296875l-0.515625 0zm1.1298828 -1.296875l0 -0.515625l1.625 0l0 0.515625l-1.625 0zm4.826172 0.796875l0 0.5l-2.828125 0q-0.015625 -0.1875 0.0625 -0.359375q0.109375 -0.296875 0.34375 -0.578125q0.234375 -0.28125 0.6875 -0.65625q0.703125 -0.5625 0.9375 -0.890625q0.25 -0.34375 0.25 -0.640625q0 -0.328125 -0.21875 -0.53125q-0.21875 -0.21875 -0.578125 -0.21875q-0.390625 0 -0.625 0.234375q-0.21875 0.21875 -0.21875 0.625l-0.546875 -0.0625q0.0625 -0.59375 0.421875 -0.90625q0.359375 -0.328125 0.96875 -0.328125q0.625 0 0.984375 0.34375q0.359375 0.34375 0.359375 0.84375q0 0.265625 -0.109375 0.515625q-0.109375 0.25 -0.359375 0.53125q-0.234375 0.265625 -0.796875 0.75q-0.484375 0.390625 -0.625 0.53125q-0.125 0.140625 -0.203125 0.296875l2.09375 0z" fill-rule="nonzero"/><path fill="#000000" fill-opacity="0.0" d="m524.80054 321.84778l74.51965 0l0 26.64566l-74.51965 0z" fill-rule="evenodd"/><path fill="#747bcb" d="m551.9495 336.60776l0 -3.109375l0.484375 0l0 0.4375q0.140625 -0.234375 0.375 -0.375q0.25 -0.140625 0.5625 -0.140625q0.34375 0 0.5625 0.15625q0.21875 0.140625 0.3125 0.390625q0.375 -0.546875 0.96875 -0.546875q0.453125 0 0.703125 0.265625q0.25 0.25 0.25 0.78125l0 2.140625l-0.515625 0l0 -1.953125q0 -0.328125 -0.0625 -0.46875q-0.046875 -0.140625 -0.1875 -0.21875q-0.125 -0.078125 -0.3125 -0.078125q-0.328125 0 -0.546875 0.21875q-0.21875 0.21875 -0.21875 0.6875l0 1.8125l-0.515625 0l0 -2.015625q0 -0.359375 -0.140625 -0.53125q-0.125 -0.171875 -0.421875 -0.171875q-0.21875 0 -0.40625 0.125q-0.1875 0.109375 -0.28125 0.328125q-0.078125 0.21875 -0.078125 0.65625l0 1.609375l-0.53125 0zm4.982422 1.203125l-0.0625 -0.5q0.171875 0.046875 0.296875 0.046875q0.1875 0 0.28125 -0.0625q0.109375 -0.046875 0.171875 -0.15625q0.0625 -0.078125 0.171875 -0.390625q0.015625 -0.046875 0.046875 -0.140625l-1.1875 -3.109375l0.578125 0l0.640625 1.796875q0.125 0.34375 0.21875 0.71875q0.09375 -0.359375 0.21875 -0.703125l0.671875 -1.8125l0.53125 0l-1.1875 3.15625q-0.1875 0.515625 -0.296875 0.71875q-0.140625 0.25 -0.328125 0.375q-0.171875 0.125 -0.421875 0.125q-0.15625 0 -0.34375 -0.0625zm2.8125 -2.125l0.515625 -0.09375q0.046875 0.3125 0.25 0.484375q0.203125 0.171875 0.5625 0.171875q0.359375 0 0.53125 -0.140625q0.1875 -0.15625 0.1875 -0.359375q0 -0.171875 -0.15625 -0.28125q-0.109375 -0.0625 -0.546875 -0.171875q-0.578125 -0.15625 -0.8125 -0.25q-0.21875 -0.109375 -0.34375 -0.296875q-0.109375 -0.203125 -0.109375 -0.421875q0 -0.21875 0.09375 -0.390625q0.109375 -0.171875 0.265625 -0.296875q0.125 -0.09375 0.328125 -0.15625q0.21875 -0.0625 0.46875 -0.0625q0.359375 0 0.640625 0.109375q0.28125 0.109375 0.40625 0.296875q0.140625 0.171875 0.1875 0.46875l-0.515625 0.078125q-0.046875 -0.25 -0.21875 -0.375q-0.15625 -0.140625 -0.46875 -0.140625q-0.359375 0 -0.515625 0.125q-0.15625 0.109375 -0.15625 0.28125q0 0.09375 0.0625 0.1875q0.0625 0.078125 0.203125 0.140625q0.078125 0.015625 0.46875 0.125q0.5625 0.15625 0.78125 0.25q0.21875 0.09375 0.34375 0.28125q0.125 0.171875 0.125 0.4375q0 0.265625 -0.15625 0.5q-0.140625 0.234375 -0.4375 0.375q-0.296875 0.125 -0.65625 0.125q-0.609375 0 -0.9375 -0.25q-0.3125 -0.265625 -0.390625 -0.75zm5.1875 2.109375l0 -1.515625q-0.125 0.171875 -0.34375 0.296875q-0.21875 0.109375 -0.46875 0.109375q-0.546875 0 -0.953125 -0.4375q-0.390625 -0.453125 -0.390625 -1.21875q0 -0.46875 0.15625 -0.84375q0.15625 -0.375 0.46875 -0.5625q0.3125 -0.203125 0.6875 -0.203125q0.5625 0 0.90625 0.484375l0 -0.40625l0.46875 0l0 4.296875l-0.53125 0zm-1.625 -2.75q0 0.59375 0.25 0.90625q0.25 0.296875 0.609375 0.296875q0.34375 0 0.578125 -0.28125q0.25 -0.296875 0.25 -0.875q0 -0.625 -0.265625 -0.9375q-0.25 -0.3125 -0.59375 -0.3125q-0.34375 0 -0.59375 0.296875q-0.234375 0.28125 -0.234375 0.90625zm2.977539 1.5625l0 -4.296875l0.515625 0l0 4.296875l-0.515625 0zm1.1298828 -1.296875l0 -0.515625l1.625 0l0 0.515625l-1.625 0zm2.0605469 0.15625l0.53125 -0.0625q0.09375 0.453125 0.3125 0.65625q0.21875 0.1875 0.53125 0.1875q0.375 0 0.625 -0.25q0.25 -0.265625 0.25 -0.640625q0 -0.375 -0.234375 -0.609375q-0.234375 -0.234375 -0.59375 -0.234375q-0.15625 0 -0.375 0.0625l0.046875 -0.46875q0.0625 0.015625 0.09375 0.015625q0.328125 0 0.59375 -0.171875q0.28125 -0.1875 0.28125 -0.546875q0 -0.296875 -0.203125 -0.484375q-0.1875 -0.1875 -0.5 -0.1875q-0.3125 0 -0.515625 0.1875q-0.203125 0.1875 -0.265625 0.578125l-0.515625 -0.09375q0.09375 -0.53125 0.4375 -0.8125q0.34375 -0.296875 0.84375 -0.296875q0.359375 0 0.65625 0.15625q0.296875 0.140625 0.453125 0.40625q0.15625 0.265625 0.15625 0.546875q0 0.28125 -0.15625 0.515625q-0.140625 0.21875 -0.4375 0.359375q0.375 0.09375 0.578125 0.375q0.21875 0.265625 0.21875 0.6875q0 0.5625 -0.40625 0.953125q-0.40625 0.390625 -1.03125 0.390625q-0.578125 0 -0.953125 -0.328125q-0.359375 -0.34375 -0.421875 -0.890625z" fill-rule="nonzero"/><path fill="#000000" fill-opacity="0.0" d="m524.80054 223.16273l74.51965 0l0 26.64566l-74.51965 0z" fill-rule="evenodd"/><path fill="#747bcb" d="m551.9495 237.92273l0 -3.109375l0.484375 0l0 0.4375q0.140625 -0.234375 0.375 -0.375q0.25 -0.140625 0.5625 -0.140625q0.34375 0 0.5625 0.15625q0.21875 0.140625 0.3125 0.390625q0.375 -0.546875 0.96875 -0.546875q0.453125 0 0.703125 0.265625q0.25 0.25 0.25 0.78125l0 2.140625l-0.515625 0l0 -1.953125q0 -0.328125 -0.0625 -0.46875q-0.046875 -0.140625 -0.1875 -0.21875q-0.125 -0.078125 -0.3125 -0.078125q-0.328125 0 -0.546875 0.21875q-0.21875 0.21875 -0.21875 0.6875l0 1.8125l-0.515625 0l0 -2.015625q0 -0.359375 -0.140625 -0.53125q-0.125 -0.171875 -0.421875 -0.171875q-0.21875 0 -0.40625 0.125q-0.1875 0.109375 -0.28125 0.328125q-0.078125 0.21875 -0.078125 0.65625l0 1.609375l-0.53125 0zm4.982422 1.203125l-0.0625 -0.5q0.171875 0.046875 0.296875 0.046875q0.1875 0 0.28125 -0.0625q0.109375 -0.046875 0.171875 -0.15625q0.0625 -0.078125 0.171875 -0.390625q0.015625 -0.046875 0.046875 -0.140625l-1.1875 -3.109375l0.578125 0l0.640625 1.796875q0.125 0.34375 0.21875 0.71875q0.09375 -0.359375 0.21875 -0.703125l0.671875 -1.8125l0.53125 0l-1.1875 3.15625q-0.1875 0.515625 -0.296875 0.71875q-0.140625 0.25 -0.328125 0.375q-0.171875 0.125 -0.421875 0.125q-0.15625 0 -0.34375 -0.0625zm2.8125 -2.125l0.515625 -0.09375q0.046875 0.3125 0.25 0.484375q0.203125 0.171875 0.5625 0.171875q0.359375 0 0.53125 -0.140625q0.1875 -0.15625 0.1875 -0.359375q0 -0.171875 -0.15625 -0.28125q-0.109375 -0.0625 -0.546875 -0.171875q-0.578125 -0.15625 -0.8125 -0.25q-0.21875 -0.109375 -0.34375 -0.296875q-0.109375 -0.203125 -0.109375 -0.421875q0 -0.21875 0.09375 -0.390625q0.109375 -0.171875 0.265625 -0.296875q0.125 -0.09375 0.328125 -0.15625q0.21875 -0.0625 0.46875 -0.0625q0.359375 0 0.640625 0.109375q0.28125 0.109375 0.40625 0.296875q0.140625 0.171875 0.1875 0.46875l-0.515625 0.078125q-0.046875 -0.25 -0.21875 -0.375q-0.15625 -0.140625 -0.46875 -0.140625q-0.359375 0 -0.515625 0.125q-0.15625 0.109375 -0.15625 0.28125q0 0.09375 0.0625 0.1875q0.0625 0.078125 0.203125 0.140625q0.078125 0.015625 0.46875 0.125q0.5625 0.15625 0.78125 0.25q0.21875 0.09375 0.34375 0.28125q0.125 0.171875 0.125 0.4375q0 0.265625 -0.15625 0.5q-0.140625 0.234375 -0.4375 0.375q-0.296875 0.125 -0.65625 0.125q-0.609375 0 -0.9375 -0.25q-0.3125 -0.265625 -0.390625 -0.75zm5.1875 2.109375l0 -1.515625q-0.125 0.171875 -0.34375 0.296875q-0.21875 0.109375 -0.46875 0.109375q-0.546875 0 -0.953125 -0.4375q-0.390625 -0.453125 -0.390625 -1.21875q0 -0.46875 0.15625 -0.84375q0.15625 -0.375 0.46875 -0.5625q0.3125 -0.203125 0.6875 -0.203125q0.5625 0 0.90625 0.484375l0 -0.40625l0.46875 0l0 4.296875l-0.53125 0zm-1.625 -2.75q0 0.59375 0.25 0.90625q0.25 0.296875 0.609375 0.296875q0.34375 0 0.578125 -0.28125q0.25 -0.296875 0.25 -0.875q0 -0.625 -0.265625 -0.9375q-0.25 -0.3125 -0.59375 -0.3125q-0.34375 0 -0.59375 0.296875q-0.234375 0.28125 -0.234375 0.90625zm2.977539 1.5625l0 -4.296875l0.515625 0l0 4.296875l-0.515625 0zm1.1298828 -1.296875l0 -0.515625l1.625 0l0 0.515625l-1.625 0zm4.044922 1.296875l-0.53125 0l0 -3.359375q-0.1875 0.1875 -0.5 0.375q-0.296875 0.171875 -0.546875 0.265625l0 -0.515625q0.4375 -0.203125 0.765625 -0.5q0.34375 -0.296875 0.46875 -0.578125l0.34375 0l0 4.3125z" fill-rule="nonzero"/><path fill="#000000" fill-opacity="0.0" d="m418.8189 79.70079l122.36218 0l0 35.590546l-122.36218 0z" fill-rule="evenodd"/><path fill="#ffc404" d="m449.10538 98.438286l1.203125 -0.109375q0.078125 0.71875 0.390625 1.1875q0.3125 0.453125 0.953125 0.734375q0.65625 0.28125 1.46875 0.28125q0.71875 0 1.265625 -0.21875q0.5625 -0.21875 0.828125 -0.578125q0.265625 -0.375 0.265625 -0.828125q0 -0.453125 -0.265625 -0.78125q-0.25 -0.328125 -0.84375 -0.5625q-0.390625 -0.15625 -1.703125 -0.46875q-1.3125 -0.3125 -1.84375 -0.59375q-0.671875 -0.359375 -1.015625 -0.890625q-0.328125 -0.53125 -0.328125 -1.1875q0 -0.71875 0.40625 -1.34375q0.40625 -0.625 1.1875 -0.953125q0.796875 -0.328125 1.765625 -0.328125q1.046875 0 1.859375 0.34375q0.8125 0.34375 1.25 1.015625q0.4375 0.65625 0.46875 1.484375l-1.203125 0.09375q-0.109375 -0.90625 -0.671875 -1.359375q-0.5625 -0.46875 -1.65625 -0.46875q-1.140625 0 -1.671875 0.421875q-0.515625 0.421875 -0.515625 1.015625q0 0.515625 0.359375 0.84375q0.375 0.328125 1.90625 0.6875q1.546875 0.34375 2.109375 0.59375q0.84375 0.390625 1.234375 0.984375q0.390625 0.578125 0.390625 1.359375q0 0.75 -0.4375 1.4375q-0.421875 0.671875 -1.25 1.046875q-0.8125 0.359375 -1.828125 0.359375q-1.296875 0 -2.171875 -0.375q-0.875 -0.375 -1.375 -1.125q-0.5 -0.765625 -0.53125 -1.71875zm11.73349 2.015625l0.171875 1.03125q-0.5 0.109375 -0.890625 0.109375q-0.640625 0 -1.0 -0.203125q-0.34375 -0.203125 -0.484375 -0.53125q-0.140625 -0.328125 -0.140625 -1.390625l0 -3.96875l-0.859375 0l0 -0.90625l0.859375 0l0 -1.71875l1.171875 -0.703125l0 2.421875l1.171875 0l0 0.90625l-1.171875 0l0 4.046875q0 0.5 0.046875 0.640625q0.0625 0.140625 0.203125 0.234375q0.140625 0.078125 0.40625 0.078125q0.203125 0 0.515625 -0.046875zm5.656128 0.1875q-0.65625 0.5625 -1.265625 0.796875q-0.59375 0.21875 -1.28125 0.21875q-1.140625 0 -1.75 -0.546875q-0.609375 -0.5625 -0.609375 -1.4375q0 -0.5 0.21875 -0.921875q0.234375 -0.421875 0.609375 -0.671875q0.375 -0.25 0.84375 -0.390625q0.34375 -0.078125 1.046875 -0.171875q1.421875 -0.171875 2.09375 -0.40625q0 -0.234375 0 -0.296875q0 -0.71875 -0.328125 -1.015625q-0.453125 -0.390625 -1.34375 -0.390625q-0.8125 0 -1.21875 0.296875q-0.390625 0.28125 -0.578125 1.015625l-1.140625 -0.15625q0.15625 -0.734375 0.515625 -1.1875q0.359375 -0.453125 1.03125 -0.6875q0.671875 -0.25 1.5625 -0.25q0.890625 0 1.4375 0.203125q0.5625 0.203125 0.8125 0.53125q0.265625 0.3125 0.375 0.796875q0.046875 0.296875 0.046875 1.078125l0 1.5625q0 1.625 0.078125 2.0625q0.078125 0.4375 0.296875 0.828125l-1.21875 0q-0.1875 -0.359375 -0.234375 -0.859375zm-0.09375 -2.609375q-0.640625 0.265625 -1.921875 0.4375q-0.71875 0.109375 -1.015625 0.25q-0.296875 0.125 -0.46875 0.375q-0.15625 0.25 -0.15625 0.546875q0 0.46875 0.34375 0.78125q0.359375 0.3125 1.046875 0.3125q0.671875 0 1.203125 -0.296875q0.53125 -0.296875 0.78125 -0.8125q0.1875 -0.390625 0.1875 -1.171875l0 -0.421875zm5.5531006 2.421875l0.171875 1.03125q-0.5 0.109375 -0.890625 0.109375q-0.640625 0 -1.0 -0.203125q-0.34375 -0.203125 -0.484375 -0.53125q-0.140625 -0.328125 -0.140625 -1.390625l0 -3.96875l-0.859375 0l0 -0.90625l0.859375 0l0 -1.71875l1.171875 -0.703125l0 2.421875l1.171875 0l0 0.90625l-1.171875 0l0 4.046875q0 0.5 0.046875 0.640625q0.0625 0.140625 0.203125 0.234375q0.140625 0.078125 0.40625 0.078125q0.203125 0 0.515625 -0.046875zm5.8748474 -1.171875l1.203125 0.140625q-0.28125 1.0625 -1.0625 1.65625q-0.765625 0.578125 -1.96875 0.578125q-1.515625 0 -2.40625 -0.9375q-0.890625 -0.9375 -0.890625 -2.609375q0 -1.75 0.890625 -2.703125q0.90625 -0.96875 2.34375 -0.96875q1.390625 0 2.265625 0.9375q0.875 0.9375 0.875 2.65625q0 0.109375 0 0.3125l-5.15625 0q0.0625 1.140625 0.640625 1.75q0.578125 0.59375 1.4375 0.59375q0.65625 0 1.109375 -0.328125q0.453125 -0.34375 0.71875 -1.078125zm-3.84375 -1.90625l3.859375 0q-0.078125 -0.859375 -0.4375 -1.296875q-0.5625 -0.6875 -1.453125 -0.6875q-0.8125 0 -1.359375 0.546875q-0.546875 0.53125 -0.609375 1.4375zm6.8031006 4.125l0 -6.0l-1.03125 0l0 -0.90625l1.03125 0l0 -0.734375q0 -0.703125 0.125 -1.046875q0.171875 -0.453125 0.59375 -0.734375q0.421875 -0.28125 1.203125 -0.28125q0.484375 0 1.09375 0.109375l-0.1875 1.03125q-0.359375 -0.0625 -0.6875 -0.0625q-0.53125 0 -0.75 0.234375q-0.21875 0.21875 -0.21875 0.84375l0 0.640625l1.34375 0l0 0.90625l-1.34375 0l0 6.0l-1.171875 0zm7.953003 0l0 -1.015625q-0.8125 1.171875 -2.1875 1.171875q-0.609375 0 -1.140625 -0.234375q-0.53125 -0.234375 -0.796875 -0.578125q-0.25 -0.359375 -0.359375 -0.875q-0.0625 -0.34375 -0.0625 -1.09375l0 -4.28125l1.171875 0l0 3.828125q0 0.921875 0.0625 1.234375q0.109375 0.46875 0.46875 0.734375q0.359375 0.25 0.890625 0.25q0.515625 0 0.984375 -0.265625q0.46875 -0.265625 0.65625 -0.734375q0.1875 -0.46875 0.1875 -1.34375l0 -3.703125l1.171875 0l0 6.90625l-1.046875 0zm2.8656006 0l0 -9.546875l1.171875 0l0 9.546875l-1.171875 0zm2.507965 -2.0625l1.15625 -0.1875q0.109375 0.703125 0.546875 1.078125q0.453125 0.359375 1.25 0.359375q0.8125 0 1.203125 -0.328125q0.390625 -0.328125 0.390625 -0.765625q0 -0.390625 -0.359375 -0.625q-0.234375 -0.15625 -1.1875 -0.390625q-1.296875 -0.328125 -1.796875 -0.5625q-0.484375 -0.25 -0.75 -0.65625q-0.25 -0.421875 -0.25 -0.9375q0 -0.453125 0.203125 -0.84375q0.21875 -0.40625 0.578125 -0.671875q0.28125 -0.1875 0.75 -0.328125q0.46875 -0.140625 1.015625 -0.140625q0.8125 0 1.421875 0.234375q0.609375 0.234375 0.90625 0.640625q0.296875 0.390625 0.40625 1.0625l-1.140625 0.15625q-0.078125 -0.53125 -0.453125 -0.828125q-0.375 -0.3125 -1.0625 -0.3125q-0.8125 0 -1.15625 0.265625q-0.34375 0.265625 -0.34375 0.625q0 0.234375 0.140625 0.421875q0.15625 0.1875 0.453125 0.3125q0.171875 0.0625 1.03125 0.296875q1.25 0.328125 1.734375 0.546875q0.5 0.203125 0.78125 0.609375q0.28125 0.40625 0.28125 1.0q0 0.59375 -0.34375 1.109375q-0.34375 0.515625 -1.0 0.796875q-0.640625 0.28125 -1.453125 0.28125q-1.34375 0 -2.046875 -0.5625q-0.703125 -0.5625 -0.90625 -1.65625zm11.8671875 -0.15625l1.203125 0.140625q-0.28125 1.0625 -1.0625 1.65625q-0.765625 0.578125 -1.96875 0.578125q-1.515625 0 -2.40625 -0.9375q-0.890625 -0.9375 -0.890625 -2.609375q0 -1.75 0.890625 -2.703125q0.90625 -0.96875 2.34375 -0.96875q1.390625 0 2.265625 0.9375q0.875 0.9375 0.875 2.65625q0 0.109375 0 0.3125l-5.15625 0q0.0625 1.140625 0.640625 1.75q0.578125 0.59375 1.4375 0.59375q0.65625 0 1.109375 -0.328125q0.453125 -0.34375 0.71875 -1.078125zm-3.84375 -1.90625l3.859375 0q-0.078125 -0.859375 -0.4375 -1.296875q-0.5625 -0.6875 -1.453125 -0.6875q-0.8125 0 -1.359375 0.546875q-0.546875 0.53125 -0.609375 1.4375zm9.084351 3.078125l0.171875 1.03125q-0.5 0.109375 -0.890625 0.109375q-0.640625 0 -1.0 -0.203125q-0.34375 -0.203125 -0.484375 -0.53125q-0.140625 -0.328125 -0.140625 -1.390625l0 -3.96875l-0.859375 0l0 -0.90625l0.859375 0l0 -1.71875l1.171875 -0.703125l0 2.421875l1.171875 0l0 0.90625l-1.171875 0l0 4.046875q0 0.5 0.046875 0.640625q0.0625 0.140625 0.203125 0.234375q0.140625 0.078125 0.40625 0.078125q0.203125 0 0.515625 -0.046875z" fill-rule="nonzero"/><path fill="#ff0454" d="m467.5118 127.5538l0 0c0 0.8762665 5.591156 1.5866241 12.48819 1.5866241c6.8970337 0 12.48819 -0.71035767 12.48819 -1.5866241l0 9.519684c0 0.8762665 -5.591156 1.5866241 -12.48819 1.5866241c-6.8970337 0 -12.48819 -0.71035767 -12.48819 -1.5866241z" fill-rule="evenodd"/><path fill="#ff6898" d="m467.5118 127.5538l0 0c0 -0.87625885 5.591156 -1.5866089 12.48819 -1.5866089c6.8970337 0 12.48819 0.71035004 12.48819 1.5866089l0 0c0 0.8762665 -5.591156 1.5866241 -12.48819 1.5866241c-6.8970337 0 -12.48819 -0.71035767 -12.48819 -1.5866241z" fill-rule="evenodd"/><path fill="#000000" fill-opacity="0.0" d="m492.4882 127.5538l0 0c0 0.8762665 -5.591156 1.5866241 -12.48819 1.5866241c-6.8970337 0 -12.48819 -0.71035767 -12.48819 -1.5866241l0 0c0 -0.87625885 5.591156 -1.5866089 12.48819 -1.5866089c6.8970337 0 12.48819 0.71035004 12.48819 1.5866089l0 9.519684c0 0.8762665 -5.591156 1.5866241 -12.48819 1.5866241c-6.8970337 0 -12.48819 -0.71035767 -12.48819 -1.5866241l0 -9.519684" fill-rule="evenodd"/><path stroke="#ffffff" stroke-width="1.0" stroke-linejoin="round" stroke-linecap="butt" d="m492.4882 127.5538l0 0c0 0.8762665 -5.591156 1.5866241 -12.48819 1.5866241c-6.8970337 0 -12.48819 -0.71035767 -12.48819 -1.5866241l0 0c0 -0.87625885 5.591156 -1.5866089 12.48819 -1.5866089c6.8970337 0 12.48819 0.71035004 12.48819 1.5866089l0 9.519684c0 0.8762665 -5.591156 1.5866241 -12.48819 1.5866241c-6.8970337 0 -12.48819 -0.71035767 -12.48819 -1.5866241l0 -9.519684" fill-rule="evenodd"/><path fill="#ff0454" d="m387.51706 248.12686l0 0c0 -2.1777344 5.591156 -3.9431305 12.48819 -3.9431305c6.8970337 0 12.48819 1.7653961 12.48819 3.9431305l0 15.772522c0 2.1777344 -5.591156 3.9431458 -12.48819 3.9431458c-6.8970337 0 -12.48819 -1.7654114 -12.48819 -3.9431458z" fill-rule="evenodd"/><path fill="#000000" fill-opacity="0.0" d="m412.49344 248.12686l0 0c0 2.1777344 -5.591156 3.9431305 -12.48819 3.9431305c-6.8970337 0 -12.48819 -1.7653961 -12.48819 -3.9431305" fill-rule="evenodd"/><path fill="#000000" fill-opacity="0.0" d="m387.51706 248.12686l0 0c0 -2.1777344 5.591156 -3.9431305 12.48819 -3.9431305c6.8970337 0 12.48819 1.7653961 12.48819 3.9431305l0 15.772522c0 2.1777344 -5.591156 3.9431458 -12.48819 3.9431458c-6.8970337 0 -12.48819 -1.7654114 -12.48819 -3.9431458z" fill-rule="evenodd"/><path stroke="#ffffff" stroke-width="1.0" stroke-linejoin="round" stroke-linecap="butt" d="m412.49344 248.12686l0 0c0 2.1777344 -5.591156 3.9431305 -12.48819 3.9431305c-6.8970337 0 -12.48819 -1.7653961 -12.48819 -3.9431305" fill-rule="evenodd"/><path stroke="#ffffff" stroke-width="1.0" stroke-linejoin="round" stroke-linecap="butt" d="m387.51706 248.12686l0 0c0 -2.1777344 5.591156 -3.9431305 12.48819 -3.9431305c6.8970337 0 12.48819 1.7653961 12.48819 3.9431305l0 15.772522c0 2.1777344 -5.591156 3.9431458 -12.48819 3.9431458c-6.8970337 0 -12.48819 -1.7654114 -12.48819 -3.9431458z" fill-rule="evenodd"/><path fill="#000000" fill-opacity="0.0" d="m362.7454 241.98163l74.519714 0l0 33.921265l-74.519714 0z" fill-rule="evenodd"/><path fill="#ffffff" d="m395.72742 257.92914l0 -4.2968903l0.484375 0l0 0.40625q0.171875 -0.234375 0.375 -0.359375q0.21875 -0.125 0.53125 -0.125q0.390625 0 0.6875 0.21875q0.3125 0.203125 0.46875 0.578125q0.15625 0.359375 0.15625 0.8125q0 0.46875 -0.171875 0.85939026q-0.171875 0.375 -0.5 0.59375q-0.328125 0.203125 -0.6875 0.203125q-0.25 0 -0.46875 -0.109375q-0.203125 -0.125 -0.34375 -0.296875l0 1.515625l-0.53125 0zm0.484375 -2.7187653q0 0.59375 0.234375 0.89064026q0.25 0.28125 0.59375 0.28125q0.359375 0 0.609375 -0.296875q0.25 -0.29689026 0.25 -0.92189026q0 -0.59375 -0.25 -0.890625q-0.25 -0.296875 -0.578125 -0.296875q-0.34375 0 -0.609375 0.3125q-0.25 0.3125 -0.25 0.921875zm3.727539 1.5312653l-1.1875 -3.1093903l0.5625 0l0.65625 1.859375q0.109375 0.296875 0.203125 0.62501526q0.078125 -0.25001526 0.203125 -0.59376526l0.6875 -1.890625l0.546875 0l-1.1875 3.1093903l-0.484375 0zm4.15625 -1.1406403l0.515625 0.0625q-0.078125 0.54689026 -0.4375 0.85939026q-0.34375 0.296875 -0.84375 0.296875q-0.640625 0 -1.03125 -0.421875q-0.390625 -0.42189026 -0.390625 -1.2031403q0 -0.5 0.15625 -0.875q0.171875 -0.375 0.515625 -0.5625q0.34375 -0.203125 0.75 -0.203125q0.5 0 0.8125 0.265625q0.328125 0.25 0.421875 0.71875l-0.515625 0.078125q-0.0625 -0.3125 -0.25 -0.46875q-0.1875 -0.15625 -0.453125 -0.15625q-0.390625 0 -0.640625 0.296875q-0.25 0.28125 -0.25 0.890625q0 0.625 0.234375 0.92189026q0.234375 0.28125 0.625 0.28125q0.3125 0 0.515625 -0.1875q0.21875 -0.20314026 0.265625 -0.59376526z" fill-rule="nonzero"/><path fill="#ffffff" d="m389.8944 263.94162l0 -3.109375l0.484375 0l0 0.4375q0.140625 -0.234375 0.375 -0.375q0.25 -0.140625 0.5625 -0.140625q0.34375 0 0.5625 0.15625q0.21875 0.140625 0.3125 0.390625q0.375 -0.546875 0.96875 -0.546875q0.453125 0 0.703125 0.265625q0.25 0.25 0.25 0.78125l0 2.140625l-0.515625 0l0 -1.953125q0 -0.328125 -0.0625 -0.46875q-0.046875 -0.140625 -0.1875 -0.21875q-0.125 -0.078125 -0.3125 -0.078125q-0.328125 0 -0.546875 0.21875q-0.21875 0.21875 -0.21875 0.6875l0 1.8125l-0.515625 0l0 -2.015625q0 -0.359375 -0.140625 -0.53125q-0.125 -0.171875 -0.421875 -0.171875q-0.21875 0 -0.40625 0.125q-0.1875 0.109375 -0.28125 0.328125q-0.078125 0.21875 -0.078125 0.65625l0 1.609375l-0.53125 0zm4.982422 1.203125l-0.0625 -0.5q0.171875 0.046875 0.296875 0.046875q0.1875 0 0.28125 -0.0625q0.109375 -0.046875 0.171875 -0.15625q0.0625 -0.078125 0.171875 -0.390625q0.015625 -0.046875 0.046875 -0.140625l-1.1875 -3.109375l0.578125 0l0.640625 1.796875q0.125 0.34375 0.21875 0.71875q0.09375 -0.359375 0.21875 -0.703125l0.671875 -1.8125l0.53125 0l-1.1875 3.15625q-0.1875 0.515625 -0.296875 0.71875q-0.140625 0.25 -0.328125 0.375q-0.171875 0.125 -0.421875 0.125q-0.15625 0 -0.34375 -0.0625zm2.8125 -2.125l0.515625 -0.09375q0.046875 0.3125 0.25 0.484375q0.203125 0.171875 0.5625 0.171875q0.359375 0 0.53125 -0.140625q0.1875 -0.15625 0.1875 -0.359375q0 -0.171875 -0.15625 -0.28125q-0.109375 -0.0625 -0.546875 -0.171875q-0.578125 -0.15625 -0.8125 -0.25q-0.21875 -0.109375 -0.34375 -0.296875q-0.109375 -0.203125 -0.109375 -0.421875q0 -0.21875 0.09375 -0.390625q0.109375 -0.171875 0.265625 -0.296875q0.125 -0.09375 0.328125 -0.15625q0.21875 -0.0625 0.46875 -0.0625q0.359375 0 0.640625 0.109375q0.28125 0.109375 0.40625 0.296875q0.140625 0.171875 0.1875 0.46875l-0.515625 0.078125q-0.046875 -0.25 -0.21875 -0.375q-0.15625 -0.140625 -0.46875 -0.140625q-0.359375 0 -0.515625 0.125q-0.15625 0.109375 -0.15625 0.28125q0 0.09375 0.0625 0.1875q0.0625 0.078125 0.203125 0.140625q0.078125 0.015625 0.46875 0.125q0.5625 0.15625 0.78125 0.25q0.21875 0.09375 0.34375 0.28125q0.125 0.171875 0.125 0.4375q0 0.265625 -0.15625 0.5q-0.140625 0.234375 -0.4375 0.375q-0.296875 0.125 -0.65625 0.125q-0.609375 0 -0.9375 -0.25q-0.3125 -0.265625 -0.390625 -0.75zm5.1875 2.109375l0 -1.515625q-0.125 0.171875 -0.34375 0.296875q-0.21875 0.109375 -0.46875 0.109375q-0.546875 0 -0.953125 -0.4375q-0.390625 -0.453125 -0.390625 -1.21875q0 -0.46875 0.15625 -0.84375q0.15625 -0.375 0.46875 -0.5625q0.3125 -0.203125 0.6875 -0.203125q0.5625 0 0.90625 0.484375l0 -0.40625l0.46875 0l0 4.296875l-0.53125 0zm-1.625 -2.75q0 0.59375 0.25 0.90625q0.25 0.296875 0.609375 0.296875q0.34375 0 0.578125 -0.28125q0.25 -0.296875 0.25 -0.875q0 -0.625 -0.265625 -0.9375q-0.25 -0.3125 -0.59375 -0.3125q-0.34375 0 -0.59375 0.296875q-0.234375 0.28125 -0.234375 0.90625zm2.977539 1.5625l0 -4.296875l0.515625 0l0 4.296875l-0.515625 0zm1.1298828 -1.296875l0 -0.515625l1.625 0l0 0.515625l-1.625 0zm2.0605469 -0.828125q0 -0.75 0.15625 -1.21875q0.15625 -0.46875 0.46875 -0.71875q0.3125 -0.25 0.78125 -0.25q0.34375 0 0.59375 0.140625q0.265625 0.140625 0.4375 0.40625q0.171875 0.25 0.265625 0.640625q0.09375 0.375 0.09375 1.0q0 0.765625 -0.15625 1.234375q-0.15625 0.453125 -0.46875 0.71875q-0.296875 0.25 -0.765625 0.25q-0.625 0 -0.984375 -0.453125q-0.421875 -0.53125 -0.421875 -1.75zm0.546875 0q0 1.0625 0.234375 1.421875q0.25 0.34375 0.625 0.34375q0.359375 0 0.609375 -0.34375q0.25 -0.359375 0.25 -1.421875q0 -1.046875 -0.25 -1.390625q-0.25 -0.359375 -0.625 -0.359375q-0.359375 0 -0.578125 0.3125q-0.265625 0.390625 -0.265625 1.4375z" fill-rule="nonzero"/><path fill="#ff0454" d="m384.36746 345.58618l0 0c0 -2.1777344 5.591156 -3.9431458 12.48819 -3.9431458c6.8970337 0 12.48819 1.7654114 12.48819 3.9431458l0 15.772522c0 2.1777344 -5.591156 3.9431458 -12.48819 3.9431458c-6.8970337 0 -12.48819 -1.7654114 -12.48819 -3.9431458z" fill-rule="evenodd"/><path fill="#000000" fill-opacity="0.0" d="m409.34384 345.58618l0 0c0 2.1777344 -5.591156 3.9431152 -12.48819 3.9431152c-6.8970337 0 -12.48819 -1.7653809 -12.48819 -3.9431152" fill-rule="evenodd"/><path fill="#000000" fill-opacity="0.0" d="m384.36746 345.58618l0 0c0 -2.1777344 5.591156 -3.9431458 12.48819 -3.9431458c6.8970337 0 12.48819 1.7654114 12.48819 3.9431458l0 15.772522c0 2.1777344 -5.591156 3.9431458 -12.48819 3.9431458c-6.8970337 0 -12.48819 -1.7654114 -12.48819 -3.9431458z" fill-rule="evenodd"/><path stroke="#ffffff" stroke-width="1.0" stroke-linejoin="round" stroke-linecap="butt" d="m409.34384 345.58618l0 0c0 2.1777344 -5.591156 3.9431152 -12.48819 3.9431152c-6.8970337 0 -12.48819 -1.7653809 -12.48819 -3.9431152" fill-rule="evenodd"/><path stroke="#ffffff" stroke-width="1.0" stroke-linejoin="round" stroke-linecap="butt" d="m384.36746 345.58618l0 0c0 -2.1777344 5.591156 -3.9431458 12.48819 -3.9431458c6.8970337 0 12.48819 1.7654114 12.48819 3.9431458l0 15.772522c0 2.1777344 -5.591156 3.9431458 -12.48819 3.9431458c-6.8970337 0 -12.48819 -1.7654114 -12.48819 -3.9431458z" fill-rule="evenodd"/><path fill="#ff0454" d="m549.5722 248.12686l0 0c0 -2.1777344 5.5911255 -3.9431305 12.488159 -3.9431305c6.8970337 0 12.48822 1.7653961 12.48822 3.9431305l0 15.772522c0 2.1777344 -5.5911865 3.9431458 -12.48822 3.9431458c-6.8970337 0 -12.488159 -1.7654114 -12.488159 -3.9431458z" fill-rule="evenodd"/><path fill="#000000" fill-opacity="0.0" d="m574.5486 248.12686l0 0c0 2.1777344 -5.5911865 3.9431305 -12.48822 3.9431305c-6.8970337 0 -12.488159 -1.7653961 -12.488159 -3.9431305" fill-rule="evenodd"/><path fill="#000000" fill-opacity="0.0" d="m549.5722 248.12686l0 0c0 -2.1777344 5.5911255 -3.9431305 12.488159 -3.9431305c6.8970337 0 12.48822 1.7653961 12.48822 3.9431305l0 15.772522c0 2.1777344 -5.5911865 3.9431458 -12.48822 3.9431458c-6.8970337 0 -12.488159 -1.7654114 -12.488159 -3.9431458z" fill-rule="evenodd"/><path stroke="#ffffff" stroke-width="1.0" stroke-linejoin="round" stroke-linecap="butt" d="m574.5486 248.12686l0 0c0 2.1777344 -5.5911865 3.9431305 -12.48822 3.9431305c-6.8970337 0 -12.488159 -1.7653961 -12.488159 -3.9431305" fill-rule="evenodd"/><path stroke="#ffffff" stroke-width="1.0" stroke-linejoin="round" stroke-linecap="butt" d="m549.5722 248.12686l0 0c0 -2.1777344 5.5911255 -3.9431305 12.488159 -3.9431305c6.8970337 0 12.48822 1.7653961 12.48822 3.9431305l0 15.772522c0 2.1777344 -5.5911865 3.9431458 -12.48822 3.9431458c-6.8970337 0 -12.488159 -1.7654114 -12.488159 -3.9431458z" fill-rule="evenodd"/><path fill="#ff0454" d="m549.2034 345.58618l0 0c0 -2.1777344 5.5911255 -3.9431458 12.488159 -3.9431458c6.8970337 0 12.48822 1.7654114 12.48822 3.9431458l0 15.772522c0 2.1777344 -5.5911865 3.9431458 -12.48822 3.9431458c-6.8970337 0 -12.488159 -1.7654114 -12.488159 -3.9431458z" fill-rule="evenodd"/><path fill="#000000" fill-opacity="0.0" d="m574.1798 345.58618l0 0c0 2.1777344 -5.5911865 3.9431152 -12.48822 3.9431152c-6.8970337 0 -12.488159 -1.7653809 -12.488159 -3.9431152" fill-rule="evenodd"/><path fill="#000000" fill-opacity="0.0" d="m549.2034 345.58618l0 0c0 -2.1777344 5.5911255 -3.9431458 12.488159 -3.9431458c6.8970337 0 12.48822 1.7654114 12.48822 3.9431458l0 15.772522c0 2.1777344 -5.5911865 3.9431458 -12.48822 3.9431458c-6.8970337 0 -12.488159 -1.7654114 -12.488159 -3.9431458z" fill-rule="evenodd"/><path stroke="#ffffff" stroke-width="1.0" stroke-linejoin="round" stroke-linecap="butt" d="m574.1798 345.58618l0 0c0 2.1777344 -5.5911865 3.9431152 -12.48822 3.9431152c-6.8970337 0 -12.488159 -1.7653809 -12.488159 -3.9431152" fill-rule="evenodd"/><path stroke="#ffffff" stroke-width="1.0" stroke-linejoin="round" stroke-linecap="butt" d="m549.2034 345.58618l0 0c0 -2.1777344 5.5911255 -3.9431458 12.488159 -3.9431458c6.8970337 0 12.48822 1.7654114 12.48822 3.9431458l0 15.772522c0 2.1777344 -5.5911865 3.9431458 -12.48822 3.9431458c-6.8970337 0 -12.488159 -1.7654114 -12.488159 -3.9431458z" fill-rule="evenodd"/><path fill="#000000" fill-opacity="0.0" d="m359.5958 339.67453l74.519684 0l0 33.921265l-74.519684 0z" fill-rule="evenodd"/><path fill="#ffffff" d="m392.57782 355.62204l0 -4.296875l0.484375 0l0 0.40625q0.171875 -0.234375 0.375 -0.359375q0.21875 -0.125 0.53125 -0.125q0.390625 0 0.6875 0.21875q0.3125 0.203125 0.46875 0.578125q0.15625 0.359375 0.15625 0.8125q0 0.46875 -0.171875 0.859375q-0.171875 0.375 -0.5 0.59375q-0.328125 0.203125 -0.6875 0.203125q-0.25 0 -0.46875 -0.109375q-0.203125 -0.125 -0.34375 -0.296875l0 1.515625l-0.53125 0zm0.484375 -2.71875q0 0.59375 0.234375 0.890625q0.25 0.28125 0.59375 0.28125q0.359375 0 0.609375 -0.296875q0.25 -0.296875 0.25 -0.921875q0 -0.59375 -0.25 -0.890625q-0.25 -0.296875 -0.578125 -0.296875q-0.34375 0 -0.609375 0.3125q-0.25 0.3125 -0.25 0.921875zm3.727539 1.53125l-1.1875 -3.109375l0.5625 0l0.65625 1.859375q0.109375 0.296875 0.203125 0.625q0.078125 -0.25 0.203125 -0.59375l0.6875 -1.890625l0.546875 0l-1.1875 3.109375l-0.484375 0zm4.15625 -1.140625l0.515625 0.0625q-0.078125 0.546875 -0.4375 0.859375q-0.34375 0.296875 -0.84375 0.296875q-0.640625 0 -1.03125 -0.421875q-0.390625 -0.421875 -0.390625 -1.203125q0 -0.5 0.15625 -0.875q0.171875 -0.375 0.515625 -0.5625q0.34375 -0.203125 0.75 -0.203125q0.5 0 0.8125 0.265625q0.328125 0.25 0.421875 0.71875l-0.515625 0.078125q-0.0625 -0.3125 -0.25 -0.46875q-0.1875 -0.15625 -0.453125 -0.15625q-0.390625 0 -0.640625 0.296875q-0.25 0.28125 -0.25 0.890625q0 0.625 0.234375 0.921875q0.234375 0.28125 0.625 0.28125q0.3125 0 0.515625 -0.1875q0.21875 -0.203125 0.265625 -0.59375z" fill-rule="nonzero"/><path fill="#ffffff" d="m386.7448 361.63455l0 -3.109375l0.484375 0l0 0.4375q0.140625 -0.234375 0.375 -0.375q0.25 -0.140625 0.5625 -0.140625q0.34375 0 0.5625 0.15625q0.21875 0.140625 0.3125 0.390625q0.375 -0.546875 0.96875 -0.546875q0.453125 0 0.703125 0.265625q0.25 0.25 0.25 0.78125l0 2.140625l-0.515625 0l0 -1.953125q0 -0.328125 -0.0625 -0.46875q-0.046875 -0.140625 -0.1875 -0.21875q-0.125 -0.078125 -0.3125 -0.078125q-0.328125 0 -0.546875 0.21875q-0.21875 0.21875 -0.21875 0.6875l0 1.8125l-0.515625 0l0 -2.015625q0 -0.359375 -0.140625 -0.53125q-0.125 -0.171875 -0.421875 -0.171875q-0.21875 0 -0.40625 0.125q-0.1875 0.109375 -0.28125 0.328125q-0.078125 0.21875 -0.078125 0.65625l0 1.609375l-0.53125 0zm4.982422 1.203125l-0.0625 -0.5q0.171875 0.046875 0.296875 0.046875q0.1875 0 0.28125 -0.0625q0.109375 -0.046875 0.171875 -0.15625q0.0625 -0.078125 0.171875 -0.390625q0.015625 -0.046875 0.046875 -0.140625l-1.1875 -3.109375l0.578125 0l0.640625 1.796875q0.125 0.34375 0.21875 0.71875q0.09375 -0.359375 0.21875 -0.703125l0.671875 -1.8125l0.53125 0l-1.1875 3.15625q-0.1875 0.515625 -0.296875 0.71875q-0.140625 0.25 -0.328125 0.375q-0.171875 0.125 -0.421875 0.125q-0.15625 0 -0.34375 -0.0625zm2.8125 -2.125l0.515625 -0.09375q0.046875 0.3125 0.25 0.484375q0.203125 0.171875 0.5625 0.171875q0.359375 0 0.53125 -0.140625q0.1875 -0.15625 0.1875 -0.359375q0 -0.171875 -0.15625 -0.28125q-0.109375 -0.0625 -0.546875 -0.171875q-0.578125 -0.15625 -0.8125 -0.25q-0.21875 -0.109375 -0.34375 -0.296875q-0.109375 -0.203125 -0.109375 -0.421875q0 -0.21875 0.09375 -0.390625q0.109375 -0.171875 0.265625 -0.296875q0.125 -0.09375 0.328125 -0.15625q0.21875 -0.0625 0.46875 -0.0625q0.359375 0 0.640625 0.109375q0.28125 0.109375 0.40625 0.296875q0.140625 0.171875 0.1875 0.46875l-0.515625 0.078125q-0.046875 -0.25 -0.21875 -0.375q-0.15625 -0.140625 -0.46875 -0.140625q-0.359375 0 -0.515625 0.125q-0.15625 0.109375 -0.15625 0.28125q0 0.09375 0.0625 0.1875q0.0625 0.078125 0.203125 0.140625q0.078125 0.015625 0.46875 0.125q0.5625 0.15625 0.78125 0.25q0.21875 0.09375 0.34375 0.28125q0.125 0.171875 0.125 0.4375q0 0.265625 -0.15625 0.5q-0.140625 0.234375 -0.4375 0.375q-0.296875 0.125 -0.65625 0.125q-0.609375 0 -0.9375 -0.25q-0.3125 -0.265625 -0.390625 -0.75zm5.1875 2.109375l0 -1.515625q-0.125 0.171875 -0.34375 0.296875q-0.21875 0.109375 -0.46875 0.109375q-0.546875 0 -0.953125 -0.4375q-0.390625 -0.453125 -0.390625 -1.21875q0 -0.46875 0.15625 -0.84375q0.15625 -0.375 0.46875 -0.5625q0.3125 -0.203125 0.6875 -0.203125q0.5625 0 0.90625 0.484375l0 -0.40625l0.46875 0l0 4.296875l-0.53125 0zm-1.625 -2.75q0 0.59375 0.25 0.90625q0.25 0.296875 0.609375 0.296875q0.34375 0 0.578125 -0.28125q0.25 -0.296875 0.25 -0.875q0 -0.625 -0.265625 -0.9375q-0.25 -0.3125 -0.59375 -0.3125q-0.34375 0 -0.59375 0.296875q-0.234375 0.28125 -0.234375 0.90625zm2.977539 1.5625l0 -4.296875l0.515625 0l0 4.296875l-0.515625 0zm1.1298828 -1.296875l0 -0.515625l1.625 0l0 0.515625l-1.625 0zm4.826172 0.796875l0 0.5l-2.828125 0q-0.015625 -0.1875 0.0625 -0.359375q0.109375 -0.296875 0.34375 -0.578125q0.234375 -0.28125 0.6875 -0.65625q0.703125 -0.5625 0.9375 -0.890625q0.25 -0.34375 0.25 -0.640625q0 -0.328125 -0.21875 -0.53125q-0.21875 -0.21875 -0.578125 -0.21875q-0.390625 0 -0.625 0.234375q-0.21875 0.21875 -0.21875 0.625l-0.546875 -0.0625q0.0625 -0.59375 0.421875 -0.90625q0.359375 -0.328125 0.96875 -0.328125q0.625 0 0.984375 0.34375q0.359375 0.34375 0.359375 0.84375q0 0.265625 -0.109375 0.515625q-0.109375 0.25 -0.359375 0.53125q-0.234375 0.265625 -0.796875 0.75q-0.484375 0.390625 -0.625 0.53125q-0.125 0.140625 -0.203125 0.296875l2.09375 0z" fill-rule="nonzero"/><path fill="#000000" fill-opacity="0.0" d="m524.80054 241.98163l74.51965 0l0 33.921265l-74.51965 0z" fill-rule="evenodd"/><path fill="#ffffff" d="m557.78253 257.92914l0 -4.2968903l0.484375 0l0 0.40625q0.171875 -0.234375 0.375 -0.359375q0.21875 -0.125 0.53125 -0.125q0.390625 0 0.6875 0.21875q0.3125 0.203125 0.46875 0.578125q0.15625 0.359375 0.15625 0.8125q0 0.46875 -0.171875 0.85939026q-0.171875 0.375 -0.5 0.59375q-0.328125 0.203125 -0.6875 0.203125q-0.25 0 -0.46875 -0.109375q-0.203125 -0.125 -0.34375 -0.296875l0 1.515625l-0.53125 0zm0.484375 -2.7187653q0 0.59375 0.234375 0.89064026q0.25 0.28125 0.59375 0.28125q0.359375 0 0.609375 -0.296875q0.25 -0.29689026 0.25 -0.92189026q0 -0.59375 -0.25 -0.890625q-0.25 -0.296875 -0.578125 -0.296875q-0.34375 0 -0.609375 0.3125q-0.25 0.3125 -0.25 0.921875zm3.727539 1.5312653l-1.1875 -3.1093903l0.5625 0l0.65625 1.859375q0.109375 0.296875 0.203125 0.62501526q0.078125 -0.25001526 0.203125 -0.59376526l0.6875 -1.890625l0.546875 0l-1.1875 3.1093903l-0.484375 0zm4.15625 -1.1406403l0.515625 0.0625q-0.078125 0.54689026 -0.4375 0.85939026q-0.34375 0.296875 -0.84375 0.296875q-0.640625 0 -1.03125 -0.421875q-0.390625 -0.42189026 -0.390625 -1.2031403q0 -0.5 0.15625 -0.875q0.171875 -0.375 0.515625 -0.5625q0.34375 -0.203125 0.75 -0.203125q0.5 0 0.8125 0.265625q0.328125 0.25 0.421875 0.71875l-0.515625 0.078125q-0.0625 -0.3125 -0.25 -0.46875q-0.1875 -0.15625 -0.453125 -0.15625q-0.390625 0 -0.640625 0.296875q-0.25 0.28125 -0.25 0.890625q0 0.625 0.234375 0.92189026q0.234375 0.28125 0.625 0.28125q0.3125 0 0.515625 -0.1875q0.21875 -0.20314026 0.265625 -0.59376526z" fill-rule="nonzero"/><path fill="#ffffff" d="m551.9495 263.94162l0 -3.109375l0.484375 0l0 0.4375q0.140625 -0.234375 0.375 -0.375q0.25 -0.140625 0.5625 -0.140625q0.34375 0 0.5625 0.15625q0.21875 0.140625 0.3125 0.390625q0.375 -0.546875 0.96875 -0.546875q0.453125 0 0.703125 0.265625q0.25 0.25 0.25 0.78125l0 2.140625l-0.515625 0l0 -1.953125q0 -0.328125 -0.0625 -0.46875q-0.046875 -0.140625 -0.1875 -0.21875q-0.125 -0.078125 -0.3125 -0.078125q-0.328125 0 -0.546875 0.21875q-0.21875 0.21875 -0.21875 0.6875l0 1.8125l-0.515625 0l0 -2.015625q0 -0.359375 -0.140625 -0.53125q-0.125 -0.171875 -0.421875 -0.171875q-0.21875 0 -0.40625 0.125q-0.1875 0.109375 -0.28125 0.328125q-0.078125 0.21875 -0.078125 0.65625l0 1.609375l-0.53125 0zm4.982422 1.203125l-0.0625 -0.5q0.171875 0.046875 0.296875 0.046875q0.1875 0 0.28125 -0.0625q0.109375 -0.046875 0.171875 -0.15625q0.0625 -0.078125 0.171875 -0.390625q0.015625 -0.046875 0.046875 -0.140625l-1.1875 -3.109375l0.578125 0l0.640625 1.796875q0.125 0.34375 0.21875 0.71875q0.09375 -0.359375 0.21875 -0.703125l0.671875 -1.8125l0.53125 0l-1.1875 3.15625q-0.1875 0.515625 -0.296875 0.71875q-0.140625 0.25 -0.328125 0.375q-0.171875 0.125 -0.421875 0.125q-0.15625 0 -0.34375 -0.0625zm2.8125 -2.125l0.515625 -0.09375q0.046875 0.3125 0.25 0.484375q0.203125 0.171875 0.5625 0.171875q0.359375 0 0.53125 -0.140625q0.1875 -0.15625 0.1875 -0.359375q0 -0.171875 -0.15625 -0.28125q-0.109375 -0.0625 -0.546875 -0.171875q-0.578125 -0.15625 -0.8125 -0.25q-0.21875 -0.109375 -0.34375 -0.296875q-0.109375 -0.203125 -0.109375 -0.421875q0 -0.21875 0.09375 -0.390625q0.109375 -0.171875 0.265625 -0.296875q0.125 -0.09375 0.328125 -0.15625q0.21875 -0.0625 0.46875 -0.0625q0.359375 0 0.640625 0.109375q0.28125 0.109375 0.40625 0.296875q0.140625 0.171875 0.1875 0.46875l-0.515625 0.078125q-0.046875 -0.25 -0.21875 -0.375q-0.15625 -0.140625 -0.46875 -0.140625q-0.359375 0 -0.515625 0.125q-0.15625 0.109375 -0.15625 0.28125q0 0.09375 0.0625 0.1875q0.0625 0.078125 0.203125 0.140625q0.078125 0.015625 0.46875 0.125q0.5625 0.15625 0.78125 0.25q0.21875 0.09375 0.34375 0.28125q0.125 0.171875 0.125 0.4375q0 0.265625 -0.15625 0.5q-0.140625 0.234375 -0.4375 0.375q-0.296875 0.125 -0.65625 0.125q-0.609375 0 -0.9375 -0.25q-0.3125 -0.265625 -0.390625 -0.75zm5.1875 2.109375l0 -1.515625q-0.125 0.171875 -0.34375 0.296875q-0.21875 0.109375 -0.46875 0.109375q-0.546875 0 -0.953125 -0.4375q-0.390625 -0.453125 -0.390625 -1.21875q0 -0.46875 0.15625 -0.84375q0.15625 -0.375 0.46875 -0.5625q0.3125 -0.203125 0.6875 -0.203125q0.5625 0 0.90625 0.484375l0 -0.40625l0.46875 0l0 4.296875l-0.53125 0zm-1.625 -2.75q0 0.59375 0.25 0.90625q0.25 0.296875 0.609375 0.296875q0.34375 0 0.578125 -0.28125q0.25 -0.296875 0.25 -0.875q0 -0.625 -0.265625 -0.9375q-0.25 -0.3125 -0.59375 -0.3125q-0.34375 0 -0.59375 0.296875q-0.234375 0.28125 -0.234375 0.90625zm2.977539 1.5625l0 -4.296875l0.515625 0l0 4.296875l-0.515625 0zm1.1298828 -1.296875l0 -0.515625l1.625 0l0 0.515625l-1.625 0zm4.044922 1.296875l-0.53125 0l0 -3.359375q-0.1875 0.1875 -0.5 0.375q-0.296875 0.171875 -0.546875 0.265625l0 -0.515625q0.4375 -0.203125 0.765625 -0.5q0.34375 -0.296875 0.46875 -0.578125l0.34375 0l0 4.3125z" fill-rule="nonzero"/><path fill="#000000" fill-opacity="0.0" d="m524.4304 339.67453l74.519714 0l0 33.921265l-74.519714 0z" fill-rule="evenodd"/><path fill="#ffffff" d="m557.4125 355.62204l0 -4.296875l0.484375 0l0 0.40625q0.171875 -0.234375 0.375 -0.359375q0.21875 -0.125 0.53125 -0.125q0.390625 0 0.6875 0.21875q0.3125 0.203125 0.46875 0.578125q0.15625 0.359375 0.15625 0.8125q0 0.46875 -0.171875 0.859375q-0.171875 0.375 -0.5 0.59375q-0.328125 0.203125 -0.6875 0.203125q-0.25 0 -0.46875 -0.109375q-0.203125 -0.125 -0.34375 -0.296875l0 1.515625l-0.53125 0zm0.484375 -2.71875q0 0.59375 0.234375 0.890625q0.25 0.28125 0.59375 0.28125q0.359375 0 0.609375 -0.296875q0.25 -0.296875 0.25 -0.921875q0 -0.59375 -0.25 -0.890625q-0.25 -0.296875 -0.578125 -0.296875q-0.34375 0 -0.609375 0.3125q-0.25 0.3125 -0.25 0.921875zm3.727539 1.53125l-1.1875 -3.109375l0.5625 0l0.65625 1.859375q0.109375 0.296875 0.203125 0.625q0.078125 -0.25 0.203125 -0.59375l0.6875 -1.890625l0.546875 0l-1.1875 3.109375l-0.484375 0zm4.15625 -1.140625l0.515625 0.0625q-0.078125 0.546875 -0.4375 0.859375q-0.34375 0.296875 -0.84375 0.296875q-0.640625 0 -1.03125 -0.421875q-0.390625 -0.421875 -0.390625 -1.203125q0 -0.5 0.15625 -0.875q0.171875 -0.375 0.515625 -0.5625q0.34375 -0.203125 0.75 -0.203125q0.5 0 0.8125 0.265625q0.328125 0.25 0.421875 0.71875l-0.515625 0.078125q-0.0625 -0.3125 -0.25 -0.46875q-0.1875 -0.15625 -0.453125 -0.15625q-0.390625 0 -0.640625 0.296875q-0.25 0.28125 -0.25 0.890625q0 0.625 0.234375 0.921875q0.234375 0.28125 0.625 0.28125q0.3125 0 0.515625 -0.1875q0.21875 -0.203125 0.265625 -0.59375z" fill-rule="nonzero"/><path fill="#ffffff" d="m551.57947 361.63455l0 -3.109375l0.484375 0l0 0.4375q0.140625 -0.234375 0.375 -0.375q0.25 -0.140625 0.5625 -0.140625q0.34375 0 0.5625 0.15625q0.21875 0.140625 0.3125 0.390625q0.375 -0.546875 0.96875 -0.546875q0.453125 0 0.703125 0.265625q0.25 0.25 0.25 0.78125l0 2.140625l-0.515625 0l0 -1.953125q0 -0.328125 -0.0625 -0.46875q-0.046875 -0.140625 -0.1875 -0.21875q-0.125 -0.078125 -0.3125 -0.078125q-0.328125 0 -0.546875 0.21875q-0.21875 0.21875 -0.21875 0.6875l0 1.8125l-0.515625 0l0 -2.015625q0 -0.359375 -0.140625 -0.53125q-0.125 -0.171875 -0.421875 -0.171875q-0.21875 0 -0.40625 0.125q-0.1875 0.109375 -0.28125 0.328125q-0.078125 0.21875 -0.078125 0.65625l0 1.609375l-0.53125 0zm4.982422 1.203125l-0.0625 -0.5q0.171875 0.046875 0.296875 0.046875q0.1875 0 0.28125 -0.0625q0.109375 -0.046875 0.171875 -0.15625q0.0625 -0.078125 0.171875 -0.390625q0.015625 -0.046875 0.046875 -0.140625l-1.1875 -3.109375l0.578125 0l0.640625 1.796875q0.125 0.34375 0.21875 0.71875q0.09375 -0.359375 0.21875 -0.703125l0.671875 -1.8125l0.53125 0l-1.1875 3.15625q-0.1875 0.515625 -0.296875 0.71875q-0.140625 0.25 -0.328125 0.375q-0.171875 0.125 -0.421875 0.125q-0.15625 0 -0.34375 -0.0625zm2.8125 -2.125l0.515625 -0.09375q0.046875 0.3125 0.25 0.484375q0.203125 0.171875 0.5625 0.171875q0.359375 0 0.53125 -0.140625q0.1875 -0.15625 0.1875 -0.359375q0 -0.171875 -0.15625 -0.28125q-0.109375 -0.0625 -0.546875 -0.171875q-0.578125 -0.15625 -0.8125 -0.25q-0.21875 -0.109375 -0.34375 -0.296875q-0.109375 -0.203125 -0.109375 -0.421875q0 -0.21875 0.09375 -0.390625q0.109375 -0.171875 0.265625 -0.296875q0.125 -0.09375 0.328125 -0.15625q0.21875 -0.0625 0.46875 -0.0625q0.359375 0 0.640625 0.109375q0.28125 0.109375 0.40625 0.296875q0.140625 0.171875 0.1875 0.46875l-0.515625 0.078125q-0.046875 -0.25 -0.21875 -0.375q-0.15625 -0.140625 -0.46875 -0.140625q-0.359375 0 -0.515625 0.125q-0.15625 0.109375 -0.15625 0.28125q0 0.09375 0.0625 0.1875q0.0625 0.078125 0.203125 0.140625q0.078125 0.015625 0.46875 0.125q0.5625 0.15625 0.78125 0.25q0.21875 0.09375 0.34375 0.28125q0.125 0.171875 0.125 0.4375q0 0.265625 -0.15625 0.5q-0.140625 0.234375 -0.4375 0.375q-0.296875 0.125 -0.65625 0.125q-0.609375 0 -0.9375 -0.25q-0.3125 -0.265625 -0.390625 -0.75zm5.1875 2.109375l0 -1.515625q-0.125 0.171875 -0.34375 0.296875q-0.21875 0.109375 -0.46875 0.109375q-0.546875 0 -0.953125 -0.4375q-0.390625 -0.453125 -0.390625 -1.21875q0 -0.46875 0.15625 -0.84375q0.15625 -0.375 0.46875 -0.5625q0.3125 -0.203125 0.6875 -0.203125q0.5625 0 0.90625 0.484375l0 -0.40625l0.46875 0l0 4.296875l-0.53125 0zm-1.625 -2.75q0 0.59375 0.25 0.90625q0.25 0.296875 0.609375 0.296875q0.34375 0 0.578125 -0.28125q0.25 -0.296875 0.25 -0.875q0 -0.625 -0.265625 -0.9375q-0.25 -0.3125 -0.59375 -0.3125q-0.34375 0 -0.59375 0.296875q-0.234375 0.28125 -0.234375 0.90625zm2.977539 1.5625l0 -4.296875l0.515625 0l0 4.296875l-0.515625 0zm1.1298828 -1.296875l0 -0.515625l1.625 0l0 0.515625l-1.625 0zm2.0605469 0.15625l0.53125 -0.0625q0.09375 0.453125 0.3125 0.65625q0.21875 0.1875 0.53125 0.1875q0.375 0 0.625 -0.25q0.25 -0.265625 0.25 -0.640625q0 -0.375 -0.234375 -0.609375q-0.234375 -0.234375 -0.59375 -0.234375q-0.15625 0 -0.375 0.0625l0.046875 -0.46875q0.0625 0.015625 0.09375 0.015625q0.328125 0 0.59375 -0.171875q0.28125 -0.1875 0.28125 -0.546875q0 -0.296875 -0.203125 -0.484375q-0.1875 -0.1875 -0.5 -0.1875q-0.3125 0 -0.515625 0.1875q-0.203125 0.1875 -0.265625 0.578125l-0.515625 -0.09375q0.09375 -0.53125 0.4375 -0.8125q0.34375 -0.296875 0.84375 -0.296875q0.359375 0 0.65625 0.15625q0.296875 0.140625 0.453125 0.40625q0.15625 0.265625 0.15625 0.546875q0 0.28125 -0.15625 0.515625q-0.140625 0.21875 -0.4375 0.359375q0.375 0.09375 0.578125 0.375q0.21875 0.265625 0.21875 0.6875q0 0.5625 -0.40625 0.953125q-0.40625 0.390625 -1.03125 0.390625q-0.578125 0 -0.953125 -0.328125q-0.359375 -0.34375 -0.421875 -0.890625z" fill-rule="nonzero"/></g></svg>